<svg xmlns="http://www.w3.org/2000/svg" width="71.217" height="61.346" viewBox="0 0 71.217 61.346">
  <path id="Path_35" data-name="Path 35" d="M1654.2,1404.9l-8.415-13.392a.963.963,0,0,0-1.5-.193c-7.471,8.384-18.192,12.1-29.052,13.62.222-2.033.436-4.067.677-6.1a.576.576,0,0,0-.392-.661.629.629,0,0,0-.716.025c-6.673,4.32-13.706,8.054-20.321,12.473a1.044,1.044,0,0,0-.442.8c-.237,1.885-.727,3.727-1.107,5.585a.916.916,0,0,0,.418,1.026l.627.3a176.156,176.156,0,0,0,21.755,8.7.943.943,0,0,0,1.16-.658q.57-2.92,1.139-5.841v-.005a102.947,102.947,0,0,0,18.938-2.387c5.1-1.115,10.556-2.6,14.945-5.542.032-.019.063-.04.1-.063.572-.423,1.076-.729,1.214-1.442q.191-.988.383-1.976l.674-3.479A1,1,0,0,0,1654.2,1404.9Zm-2.285,3.025q-.2,1.042-.4,2.086l-.123.637c-.015.076-.025.127-.033.163a.916.916,0,0,0-.192.073.537.537,0,0,0-.113.066c-.464.314-.939.608-1.424.887-.018-.5-.084-1.007-.139-1.5a6.439,6.439,0,0,0-.236-1.382,26.222,26.222,0,0,0,2.75-1.467Zm-11.719,3.971c.027.489.107.974.179,1.467a8.4,8.4,0,0,0,.3,1.959q-1.058.286-2.117.542a8.055,8.055,0,0,0-.534-3.482C1638.734,1412.233,1639.46,1412.072,1640.191,1411.9Zm.8,1.978c-.132-.686-.245-1.388-.427-2.066.749-.179,1.5-.37,2.254-.576a13.131,13.131,0,0,0,.17,1.7,8.694,8.694,0,0,0,.12,1.676q-.956.3-1.923.571A5.279,5.279,0,0,0,1640.99,1413.878Zm2.63-.739a11.777,11.777,0,0,0-.5-1.987c.866-.242,1.73-.505,2.583-.794.086.518.173,1.034.232,1.559a7.36,7.36,0,0,0,.256,1.588q-1.18.482-2.4.885A4.759,4.759,0,0,0,1643.62,1413.14Zm2.979-1.588a7.02,7.02,0,0,0-.321-1.393c.885-.314,1.756-.657,2.606-1.037-.018.4.033.813.049,1.219.025.621-.01,1.25.021,1.871-.662.355-1.341.681-2.032.983C1646.837,1412.646,1646.685,1412.094,1646.6,1411.552Zm-11.535,3.512a6.887,6.887,0,0,0,0,1.608q-1.041.223-2.087.421a1.409,1.409,0,0,0-.063-.3,8.777,8.777,0,0,1-.236-1.55,9.864,9.864,0,0,0-.222-1.793q1.269-.21,2.533-.449C1635,1413.686,1635.059,1414.375,1635.064,1415.064Zm-40.173,1.759-.056-.027c.279-1.331.578-2.655.8-3.995q.747.354,1.494.7c-.285.756-.535,1.538-.806,2.3a10.334,10.334,0,0,0-.451,1.486Q1595.384,1417.056,1594.891,1416.823Zm2.121-1.16a6.017,6.017,0,0,0,.427-2.021q.713.328,1.427.65a10.573,10.573,0,0,0-.689,1.975c-.159.5-.506,1.157-.672,1.774q-.515-.235-1.03-.475A15.194,15.194,0,0,1,1597.012,1415.663Zm1.7,1.119a21.348,21.348,0,0,0,.749-2.223q.79.352,1.582.7c-.3.679-.462,1.472-.711,2.144-.184.494-.491,1.042-.7,1.593q-.7-.309-1.4-.624A12.863,12.863,0,0,0,1598.715,1416.782Zm2.246.79a8.16,8.16,0,0,0,.646-2.073q.917.394,1.838.777a13.573,13.573,0,0,0-.9,2.086c-.2.505-.461,1.044-.666,1.594q-.777-.328-1.553-.663C1600.58,1418.727,1600.756,1418.086,1600.96,1417.571Zm2.026,1.339a22.485,22.485,0,0,0,.874-2.461q1.139.471,2.285.926a8.1,8.1,0,0,0-1.068,1.874,11.926,11.926,0,0,0-.738,1.723q-.9-.362-1.794-.735C1602.707,1419.792,1602.836,1419.331,1602.987,1418.91Zm2.828.377a7.474,7.474,0,0,0,.728-1.754q.9.354,1.8.7a10.932,10.932,0,0,0-.687,1.6,9.752,9.752,0,0,0-.791,2.134q-.908-.349-1.812-.71A21,21,0,0,1,1605.814,1419.287Zm2.234,1.368a14.77,14.77,0,0,0,.741-2.253q.815.309,1.635.611c-.349.623-.629,1.29-.941,1.927a4.805,4.805,0,0,0-.682,1.759q-.7-.261-1.4-.528A5.775,5.775,0,0,0,1608.048,1420.655Zm2.256.353a9.587,9.587,0,0,0,.664-1.795q.885.323,1.776.637a7.187,7.187,0,0,0-.827,1.532,12.38,12.38,0,0,0-.867,2.135q-.844-.3-1.686-.609A6.81,6.81,0,0,0,1610.3,1421.007Zm1.939,1.13c.268-.729.587-1.437.854-2.165q.691.242,1.386.479a17.952,17.952,0,0,0-.7,1.844,13.182,13.182,0,0,0-.65,1.95q-.739-.253-1.473-.512A11.355,11.355,0,0,0,1612.243,1422.137Zm1.955.68a16.575,16.575,0,0,0,.723-2.216q.551.186,1.1.37l-.767,3.989q-.816-.269-1.627-.544C1613.87,1423.908,1614.011,1423.349,1614.2,1422.818Zm3.368-4.105-1.279-3.947q1.245.013,2.49-.014a11.2,11.2,0,0,0,.026,1.928c.023.608-.118,1.338-.108,2Q1618.131,1418.7,1617.566,1418.713Zm1.849-1.317a13.773,13.773,0,0,0-.226-2.651c.67-.017,1.339-.043,2.008-.076a19.594,19.594,0,0,0-.073,2.094c-.011.581-.168,1.215-.12,1.8q-.79.048-1.58.084A8.294,8.294,0,0,0,1619.416,1417.4Zm2.236-2.749q.973-.052,1.944-.123c-.031.451-.02.908-.025,1.362a17.956,17.956,0,0,0,.034,2.489q-.979.085-1.96.151a7.439,7.439,0,0,0,.078-1.364A13.394,13.394,0,0,0,1621.652,1414.647Zm2.619,1.654c-.022-.6-.021-1.219-.091-1.825q1.13-.092,2.257-.209c-.031.474,0,.958,0,1.41a5.113,5.113,0,0,0,.28,2.379q-1.2.143-2.4.256A15.917,15.917,0,0,0,1624.271,1416.3Zm2.762-.624c-.032-.478,0-.98-.022-1.474q1.164-.13,2.326-.286a12.649,12.649,0,0,0,.122,1.738c.057.638-.068,1.373,0,2.032q-1.092.163-2.188.3A9.2,9.2,0,0,0,1627.032,1415.677Zm3.131.353a15.459,15.459,0,0,0-.273-2.19q1.07-.15,2.138-.322a11.657,11.657,0,0,0,.038,2.007,4.093,4.093,0,0,0,.266,1.686q-1.059.192-2.122.361A6.4,6.4,0,0,0,1630.163,1416.031Zm6.295.333c-.262.061-.525.118-.787.176a7,7,0,0,0-.064-1.476,10.833,10.833,0,0,0-.268-2.132q1.008-.194,2.012-.4l.4-.084c-.014.614.063,1.224.109,1.839.042.575.024,1.158.1,1.729Q1637.2,1416.192,1636.458,1416.363Z" transform="matrix(0.875, 0.485, -0.485, 0.875, -701.299, -1988.886)" fill="#2d2d2d"/>
</svg>
