<svg xmlns="http://www.w3.org/2000/svg" width="143.364" height="13.772" viewBox="0 0 143.364 13.772">
  <g id="Group_7" data-name="Group 7" transform="translate(-878.829 -547.055)">
    <g id="Group_6" data-name="Group 6" transform="translate(878.829 547.055)">
      <path id="Path_12" data-name="Path 12" d="M882.085,554.913c1.133-.094,2.251-.255,3.375-.386.457-.053.913-.116,1.368-.176q3.014-.4,6.036-.773,3.612-.449,7.23-.889,5.168-.627,10.356-1.192c.793-.086,1.588-.159,2.383-.235q3.028-.3,6.062-.57t6.075-.525c.793-.065,1.586-.141,2.381-.193q4.859-.317,9.728-.575,2.994-.158,5.992-.3c.782-.035,1.566-.083,2.349-.1q4.715-.123,9.435-.2,4.658-.069,9.319-.083c.82,0,1.641.015,2.46.024q3.042.036,6.083.093,4.73.092,9.46.24c1.031.032,2.061.083,3.092.127q3.235.139,6.47.307l.535.028q-7.3-.253-14.589-.363-3.046-.045-6.089-.067c-.875-.006-1.751-.021-2.627-.014q-4.406.033-8.806.124-5.087.1-10.164.261c-.569.018-1.137.054-1.705.084q-2.7.143-5.4.3-5.474.325-10.932.72c-.538.039-1.075.092-1.612.143q-2.66.257-5.315.529-4.755.489-9.49,1.028c-.87.1-1.737.224-2.6.338q-3.024.4-6.037.814c-2.553.353-5.1.711-7.644,1.093q-5.305.8-10.576,1.655-1.264.206-2.527.415c-1.509.25-3,.556-4.494.845-.158.031-.275.137-.24.3a.339.339,0,0,0,.357.242l1.686-.081a.862.862,0,0,0-.02.429,1.232,1.232,0,0,0,1.3.9c4.287-.6,8.582-1.2,12.907-1.68q5.631-.627,11.284-1.176,6.25-.608,12.525-1.123,1.976-.162,3.953-.315c.38-.028.761-.064,1.143-.085q10.138-.56,20.313-.856,5.437-.16,10.882-.245,1.968-.031,3.935-.033,10.424,0,20.863.278,4.471.119,8.946.286c2.547.1,5.091.23,7.646.292q3.166.077,6.336.179c1.054.034,2.108.085,3.167.1q3.616.031,7.243.083l-.007.01a1.228,1.228,0,0,0-.253.817.956.956,0,0,0,.336.68.851.851,0,0,0,.742.175q.84-.266,1.679-.547l-.035.012.124-.042.144-.048-.053.017.9-.3c.313-.1.626-.209.94-.319.341-.119.676-.271,1.012-.418a1.414,1.414,0,0,0,.758-.987,1.224,1.224,0,0,0-.03-.621.939.939,0,0,0-.555-.612c-.259-.074-.519-.136-.782-.2a1.364,1.364,0,0,0-.179-.026c-.182-.016-.378-.005-.555-.007-.414,0-.832.026-1.246.023l-1.013-.007q-1.365-.008-2.726-.013c-.234,0-.469-.005-.7-.007a1.045,1.045,0,0,0,.243-.338,1.1,1.1,0,0,0,.131-.325c.024-.081.05-.162.075-.242a.978.978,0,0,0,.005-.308l.076-.027a1.372,1.372,0,0,0,.483-.4,1.394,1.394,0,0,0,.266-.6,1.2,1.2,0,0,0-.044-.619l-.133-.258a.981.981,0,0,0-.445-.348,2.683,2.683,0,0,0-1.053-.256c-.3-.022-.611-.023-.91-.041l-1.308-.08c-.617-.037-1.234-.071-1.85-.11q-2.442-.156-4.884-.3c-1.531-.086-3.062-.179-4.593-.267q-2.086-.121-4.174-.221c-5.551-.259-11.1-.473-16.654-.579q-6.247-.122-12.49-.142-2.791-.009-5.581.031-6.256.092-12.5.28-1.781.054-3.562.116c-.688.024-1.376.069-2.064.106q-6.166.33-12.313.75-1.876.129-3.751.266c-.7.051-1.4.122-2.1.185q-6.089.552-12.154,1.189-3.131.33-6.247.712-5.338.648-10.652,1.362c-3.069.41-6.138.814-9.2,1.245l-1.454.206c-.783.112-1.569.212-2.355.316-.7.092-1.4.175-2.105.225a.545.545,0,0,0-.513-.237c-.447.076-.891.163-1.334.25-.215.042-.384.158-.4.365a.509.509,0,0,0,.463.5c.206.023.411.048.617.069a5.309,5.309,0,0,0,.607.009C881.043,555,881.566,554.957,882.085,554.913Zm125.031-3.02q1,.069,2,.142a1.044,1.044,0,0,0,.2.435c-.26,0-.521,0-.779-.009l-1.462-.047q-3.192-.1-6.381-.173c-.973-.023-1.949-.026-2.918-.067q-2.272-.1-4.545-.181-5.193-.191-10.384-.313-10.075-.234-20.138-.218c-4.8.01-9.6.137-14.4.283q-10.835.334-21.632.957c-1.443.084-2.881.223-4.319.343q-6.11.513-12.2,1.113-5.976.589-11.928,1.263l-1.1.125q1.6-.232,3.195-.454,5.585-.77,11.2-1.471,1.961-.245,3.927-.481c.676-.081,1.354-.143,2.033-.213q5.865-.6,11.757-1.123c.768-.068,1.536-.151,2.305-.2q1.664-.107,3.328-.209,6.092-.369,12.2-.648,1.344-.062,2.689-.119c.237-.01.473-.012.709-.017l1.89-.041q6.128-.13,12.265-.163c1.885-.011,3.771-.021,5.656.006,6.082.085,12.166.228,18.248.479C994.729,551.148,1000.928,551.463,1007.117,551.893Z" transform="translate(-878.829 -547.055)" fill="#0c0c0c"/>
      <path id="Path_13" data-name="Path 13" d="M902.459,572.407a.333.333,0,0,0-.347-.253.254.254,0,0,0-.245.3.335.335,0,0,0,.348.252A.253.253,0,0,0,902.459,572.407Z" transform="translate(-889.727 -558.93)" fill="#0c0c0c"/>
    </g>
  </g>
</svg>
