<svg xmlns="http://www.w3.org/2000/svg" width="244.3" height="9.391" viewBox="0 0 244.3 9.391">
  <path id="Path_30" data-name="Path 30" d="M422.568,82.556c-.008,0-.008.009,0,.009q10.971,1.146,21.982,1.746c4.436.241,8.874.429,13.315.505,6.4.108,12.793-.024,19.19-.153,5.52-.111,11.043-.179,16.563-.268q6.634-.1,13.267-.239c5.1-.1,10.2-.16,15.29-.309q17.573-.513,35.148-.969c4.657-.119,9.313-.179,13.972-.23q5.079-.057,10.156-.112c1.531-.016,3.059.015,4.589.036q5.6.083,11.2.162c1.624.022,3.246.031,4.869.111,5.4.27,10.793.485,16.185.817,5.895.363,11.807.617,17.711.8,5.141.163,10.286.285,15.431.244a98.208,98.208,0,0,0,11.335-.6c.005,0,.008-.009,0-.009-2.482-.368-4.956-.77-7.441-1.1l.217.028c-5.457-.777-10.946-1.4-16.433-1.932q-6.4-.624-12.809-1.145,2.383-.1,4.766-.216c2.253-.108,4.5-.242,6.756-.348,2.874-.134,5.746-.327,8.621-.47q7.809-.388,15.6-1.131a0,0,0,1,0,0-.009c-5.258-.526-10.56-.58-15.839-.68-5.6-.1-11.212-.119-16.816-.084q-8,.05-16,.28c-4.773.136-9.542.268-14.315.363l-11.586.23c-1.881.037-3.766.1-5.648.111q-9.473.038-18.947.081c-1.6.007-3.2.033-4.8.018q-4.176-.045-8.354-.087-5.577-.06-11.154-.115c-1.35-.015-2.7-.024-4.05-.057l-19.891-.484c-5.266-.126-10.528-.358-15.791-.542-9.874-.347-19.748-.729-29.625-1.023-5.223-.155-10.445-.268-15.67-.312q-2.018-.017-4.036-.016-3.58,0-7.161.046c-1.826.023-3.653.086-5.481.085-6.134,0-12.268.15-18.4.182-.005,0-.006.009,0,.009,1.614.265,3.224.527,4.844.74q2.463.322,4.928.626,4.559.564,9.121,1.055c.563.062,1.13.1,1.7.14q2.432.192,4.864.365,5.358.38,10.72.651c2.012.1,4.025.168,6.039.224-9.869.351-19.73,1.065-29.552,2.062C428.279,81.941,425.421,82.233,422.568,82.556Z" transform="translate(-418.476 -75.465)" fill="#0f0f0f"/>
</svg>
