<svg xmlns="http://www.w3.org/2000/svg" width="599.912" height="477.973" viewBox="0 0 599.912 477.973">
  <g id="Group_19" data-name="Group 19" transform="translate(-1933.833 -398.605)">
    <g id="Group_18" data-name="Group 18">
      <path id="Path_36" data-name="Path 36" d="M2502.393,474.845c-35.825-46.352-95.069-53.786-149.739-59.15-70.578-6.923-141.571-7.022-212.011,1.77-46.876,5.851-105.808,14.7-144.241,44.985-35.331,27.837-39.687,70.935-39.628,113.2a6.856,6.856,0,0,0-.2,1.015c.126,37.816,8.822,74.775,18.155,111.253,5.469,21.367,17.345,42.63,35.038,56.181,25.631,19.625,56.2,27.68,88.03,29.628,28.865,1.767,55.789.574,66.919,31.746,5.6,15.691,8.93,31.8,15.511,47.2,2.049,4.8,8.864,4.6,12.146,1.566,22.289-20.613,30.541-52.191,57.068-68.453,26.965-16.526,56.473-16.121,86.756-17.049,46.678-1.431,95.333-4.237,137.539-26.142,40.416-20.977,56.7-62.668,58.871-105.986C2535.236,584.238,2536.119,518.484,2502.393,474.845Zm8.672,197.912c-12.621,47.756-59.34,66.463-103.356,74.315-41.467,7.4-84.406,1.581-125.549,9.357-18.372,3.474-41.317,12.963-55.092,25.763-15.745,14.64-24.033,35.472-37.452,52.131-6.923-20.574-10.354-42.428-24.628-59.492-16.611-19.862-55.338-15.625-77.694-16.953-95.362-5.667-113.8-103-117.5-181.218a6.389,6.389,0,0,0-.168-.685c1.123-42.158,7.638-82.96,45.842-107.016,46.058-29,111.733-34.964,164.318-39.424a897.5,897.5,0,0,1,172.864,2.314c63.073,6.911,129.7,17.137,153.621,84.946C2521.937,561.2,2523.114,627.189,2511.065,672.757Z" fill="#2d2d2d"/>
      <path id="Path_40" data-name="Path 40" d="M2426.893,645.777c9.567-4.525,16.16-88.435,12.048-116.758-1.784-15.421-1.79-24.682-21.147-19.246-11.238,3.155-14.231,17.717-14.88,27.242-2.019,29.336-5.277,59.258,2.428,88.69C2408.118,636.341,2410.281,653.629,2426.893,645.777Z" fill="#2d2d2d"/>
      <path id="Path_41" data-name="Path 41" d="M2402.06,670.068c-3.774,11.568,31.978,17.5,36.275,4.225C2444.141,656.4,2401.964,649.512,2402.06,670.068Z" fill="#2d2d2d"/>
      <path id="Path_42" data-name="Path 42" d="M2434.213,472.381c.805.172,1.43-1.045.6-1.406-37.411-15.994-79.341-19.489-119.558-22.181-44.941-3.005-96.842-5.364-140.508,7.793a.677.677,0,0,0,.18,1.323c40.638-.968,80.627-5.439,121.463-4.249C2343.063,455.023,2388.635,462.724,2434.213,472.381Z" fill="#2d2d2d"/>
      <path id="Path_43" data-name="Path 43" d="M2453.329,479.86c3.18,1.028,6.767,3.693,10.133,2.608a1.157,1.157,0,0,0,.806-1.418c-1.288-3.392-5.242-4.074-8.42-5.1-3.6-1.163-7.651-2.389-11.45-1.809-1.063.162-.924,1.53-.263,2.022C2446.755,478.118,2450.246,478.866,2453.329,479.86Z" fill="#2d2d2d"/>
      <path id="Path_44" data-name="Path 44" d="M2030.935,704.049c-22.236-25.057-28.4-59.24-41.311-89.039-.156-.36-.722-.165-.716.2,1.25,53.774,39.816,124.868,100.387,123.942.811-.012,1.244-1.223.439-1.613C2068.237,727.187,2047.479,722.694,2030.935,704.049Z" fill="#2d2d2d"/>
      <path id="Path_45" data-name="Path 45" d="M2110,738.691c-3.606.079-7.314-.21-10.547,1.632a1.211,1.211,0,0,0,0,2.074c2.849,1.622,5.938,1.529,9.129,1.6,3.815.081,7.157.391,10.427-1.809a.973.973,0,0,0,0-1.659C2116.135,738.589,2113.406,738.619,2110,738.691Z" fill="#2d2d2d"/>
      <path id="Path_46" data-name="Path 46" d="M2495.091,667.294c-6.821,12.134-11.935,20.845-23.817,28.991-10.078,6.911-21.719,10.973-31.754,17.966a1.112,1.112,0,0,0,.852,2.022c19.832-3.2,60.068-23.471,55.506-48.874A.433.433,0,0,0,2495.091,667.294Z" fill="#2d2d2d"/>
      <path id="Path_47" data-name="Path 47" d="M2448.647,768.448c-39.639,11.755-81.407,9.165-122.213,11.746-30.566,1.935-73.127,6.722-88.217,37.906-.168.345.295.778.564.438,50.326-62.611,146.308-17.136,210.348-48.945C2449.772,769.274,2449.32,768.25,2448.647,768.448Z" fill="#2d2d2d"/>
      <path id="Path_48" data-name="Path 48" d="M2472.086,756.225c-5.1,2.5-9.411,6.7-15.223,7.7-.636.111-.409.982.138,1.039a11.718,11.718,0,0,0,3.4.178,17.2,17.2,0,0,0,4.537-1.482c3.119-1.429,6.316-3.515,7.969-6.613A.6.6,0,0,0,2472.086,756.225Z" fill="#2d2d2d"/>
      <path id="Path_49" data-name="Path 49" d="M1947.965,502.952a.218.218,0,0,0-.4-.165c-16.953,28.321-14.88,66.953-11.16,98.381,3.9,32.9,11.743,66.875,24.8,97.346.21.49.961.133.835-.351-8.221-32.317-18.144-63.78-22.555-96.995A222.635,222.635,0,0,1,1947.965,502.952Z" fill="#2d2d2d"/>
      <path id="Path_50" data-name="Path 50" d="M2454.417,416.092c23.589,10.5,38.606,27.653,55.891,45.808.636.67,1.556-.177,1.2-.931-18.588-39.741-81.553-67.789-123.837-61.475-.324.048-.313.592,0,.649C2411.027,404.337,2432.392,406.287,2454.417,416.092Z" fill="#2d2d2d"/>
    </g>
    <path id="Path_51" data-name="Path 51" d="M2461.836,856.341c14.844,10.5,34.106,6.641,44.821-7.47a37.591,37.591,0,0,0,.523-44.309c-10.632-14.939-28.612-16.25-44.178-8.732-21.413,10.352-22.783,34.354-11.118,50.153A38.479,38.479,0,0,0,2461.836,856.341Z" fill="#2d2d2d"/>
    <path id="Path_52" data-name="Path 52" d="M2316.094,810.091c-21.413,10.352-22.783,34.354-11.118,50.154a38.5,38.5,0,0,0,9.952,10.357c14.844,10.5,34.106,6.641,44.82-7.47a37.588,37.588,0,0,0,.524-44.309C2349.641,803.883,2331.66,802.573,2316.094,810.091Z" fill="#2d2d2d"/>
    <g id="Group_20" data-name="Group 20" transform="matrix(0.999, -0.052, 0.052, 0.999, 1919.403, 459.339)">
      <text id="ZHENG" transform="translate(140 239.657)" fill="#1c1c1c" font-size="63" font-family="CheapPotatoes, Cheap Potatoes"><tspan x="0" y="0">ZHENG</tspan></text>
      <text id="TERRY" transform="translate(140 129)" fill="#1c1c1c" font-size="61" font-family="CheapPotatoes, Cheap Potatoes"><tspan x="0" y="0">TERRY</tspan></text>
    </g>
  </g>
</svg>
