<svg xmlns="http://www.w3.org/2000/svg" width="158.01" height="125.892" viewBox="0 0 158.01 125.892">
  <g id="Group_19" data-name="Group 19" transform="translate(-1933.833 -398.605)">
    <g id="Group_18" data-name="Group 18" transform="translate(1933.833 398.605)">
      <path id="Path_36" data-name="Path 36" d="M2100.338,427.573c-9.436-12.209-25.04-14.167-39.439-15.579a251.9,251.9,0,0,0-55.841.466c-12.347,1.541-27.869,3.871-37.991,11.849-9.306,7.332-10.453,18.683-10.437,29.814a1.8,1.8,0,0,0-.052.267c.033,9.96,2.324,19.695,4.782,29.3,1.44,5.628,4.568,11.228,9.229,14.8,6.751,5.169,14.8,7.291,23.186,7.8,7.6.465,14.694.151,17.626,8.362,1.475,4.133,2.352,8.375,4.085,12.431.54,1.265,2.335,1.212,3.2.412,5.871-5.429,8.044-13.746,15.031-18.03,7.1-4.353,14.874-4.246,22.851-4.49,12.294-.377,25.109-1.116,36.226-6.885,10.645-5.525,14.935-16.506,15.506-27.915C2108.988,456.386,2109.22,439.067,2100.338,427.573Zm2.284,52.128c-3.324,12.578-15.629,17.506-27.223,19.574-10.922,1.949-22.231.416-33.068,2.464-4.839.915-10.882,3.414-14.51,6.786-4.147,3.856-6.33,9.343-9.865,13.731-1.823-5.419-2.727-11.175-6.487-15.67-4.375-5.231-14.575-4.115-20.464-4.465-25.117-1.493-29.974-27.129-30.947-47.731a1.624,1.624,0,0,0-.044-.18c.3-11.1,2.012-21.851,12.074-28.187,12.131-7.638,29.429-9.209,43.28-10.384a236.39,236.39,0,0,1,45.53.609c16.613,1.82,34.162,4.514,40.462,22.374C2105.485,450.317,2105.8,467.7,2102.622,479.7Z" transform="translate(-1950.586 -407.492)" fill="#fff"/>
      <path id="Path_40" data-name="Path 40" d="M2407.433,544.441c2.52-1.192,4.256-23.293,3.173-30.753-.47-4.062-.472-6.5-5.57-5.069-2.96.831-3.748,4.666-3.919,7.175-.532,7.727-1.39,15.608.639,23.36C2402.488,541.955,2403.058,546.509,2407.433,544.441Z" transform="translate(-2277.567 -479.339)" fill="#fff"/>
      <path id="Path_41" data-name="Path 41" d="M2401.855,660.786c-.994,3.047,8.422,4.609,9.554,1.113C2412.938,657.185,2401.83,655.371,2401.855,660.786Z" transform="translate(-2278.53 -589.286)" fill="#fff"/>
      <path id="Path_42" data-name="Path 42" d="M2242.734,453.279c.212.045.377-.275.157-.37-9.854-4.213-20.9-5.133-31.49-5.842-11.837-.792-25.507-1.413-37.008,2.053a.178.178,0,0,0,.047.348c10.7-.255,21.236-1.433,31.992-1.119C2218.726,448.707,2230.729,450.735,2242.734,453.279Z" transform="translate(-2110.94 -433.847)" fill="#fff"/>
      <path id="Path_43" data-name="Path 43" d="M2446.176,475.534c.838.271,1.783.973,2.669.687a.3.3,0,0,0,.212-.373c-.339-.893-1.381-1.073-2.218-1.345a6.816,6.816,0,0,0-3.016-.476c-.28.043-.243.4-.069.533A8.119,8.119,0,0,0,2446.176,475.534Z" transform="translate(-2309.348 -454.133)" fill="#fff"/>
      <path id="Path_44" data-name="Path 44" d="M1999.977,638.321c-5.857-6.6-7.479-15.6-10.881-23.452-.041-.095-.19-.043-.188.052.329,14.163,10.487,32.889,26.44,32.645.214,0,.328-.322.116-.425C2009.8,644.415,2004.335,643.232,1999.977,638.321Z" transform="translate(-1974.402 -557.871)" fill="#fff"/>
      <path id="Path_45" data-name="Path 45" d="M2101.8,738.674a5.646,5.646,0,0,0-2.778.43.319.319,0,0,0,0,.546,4.834,4.834,0,0,0,2.4.422,4.316,4.316,0,0,0,2.746-.476.256.256,0,0,0,0-.437A3.676,3.676,0,0,0,2101.8,738.674Z" transform="translate(-2055.403 -649.099)" fill="#fff"/>
      <path id="Path_46" data-name="Path 46" d="M2453.768,667.142c-1.8,3.2-3.143,5.49-6.273,7.636-2.654,1.82-5.72,2.89-8.364,4.732a.293.293,0,0,0,.225.533c5.223-.843,15.821-6.182,14.619-12.873A.114.114,0,0,0,2453.768,667.142Z" transform="translate(-2305.939 -596.372)" fill="#fff"/>
      <path id="Path_47" data-name="Path 47" d="M2293.615,768.429c-10.44,3.1-21.442,2.414-32.189,3.094-8.051.51-19.261,1.771-23.235,9.984-.044.091.078.2.149.115,13.255-16.491,38.536-4.513,55.4-12.892C2293.912,768.647,2293.792,768.377,2293.615,768.429Z" transform="translate(-2158.019 -671.017)" fill="#fff"/>
      <path id="Path_48" data-name="Path 48" d="M2460.589,756.174c-1.342.658-2.479,1.765-4.01,2.028-.167.029-.108.259.036.274a3.09,3.09,0,0,0,.895.047,4.526,4.526,0,0,0,1.195-.39,4.35,4.35,0,0,0,2.1-1.742A.159.159,0,0,0,2460.589,756.174Z" transform="translate(-2318.82 -661.982)" fill="#fff"/>
      <path id="Path_49" data-name="Path 49" d="M1937.555,502.755a.057.057,0,0,0-.1-.043c-4.465,7.459-3.919,17.635-2.939,25.912a93.973,93.973,0,0,0,6.531,25.64c.055.129.253.035.22-.092-2.165-8.512-4.779-16.8-5.941-25.547A58.641,58.641,0,0,1,1937.555,502.755Z" transform="translate(-1933.833 -475.272)" fill="#fff"/>
      <path id="Path_50" data-name="Path 50" d="M2405.076,403.211c6.213,2.766,10.168,7.284,14.721,12.065.167.176.41-.047.317-.245-4.9-10.467-21.48-17.855-32.617-16.192-.085.013-.083.156,0,.171C2393.648,400.115,2399.275,400.629,2405.076,403.211Z" transform="translate(-2267.961 -398.605)" fill="#fff"/>
    </g>
    <path id="Path_51" data-name="Path 51" d="M2449.133,808.465a8.5,8.5,0,0,0,11.805-1.967,9.9,9.9,0,0,0,.138-11.67c-2.8-3.935-7.536-4.28-11.636-2.3-5.64,2.727-6,9.048-2.928,13.21A10.134,10.134,0,0,0,2449.133,808.465Z" transform="translate(-376.23 -289.298)" fill="#fff"/>
    <path id="Path_52" data-name="Path 52" d="M2302.532,806.788c-5.64,2.727-6,9.048-2.928,13.21a10.141,10.141,0,0,0,2.621,2.728,8.5,8.5,0,0,0,11.8-1.968,9.9,9.9,0,0,0,.138-11.67C2311.368,805.153,2306.632,804.808,2302.532,806.788Z" transform="translate(-268.016 -299.803)" fill="#fff"/>
    <g id="Group_20" data-name="Group 20" transform="matrix(0.999, -0.052, 0.052, 0.999, 1967.573, 426.35)">
      <text id="ZHENG" transform="translate(0 48.882)" fill="#fff" font-size="16" font-family="CheapPotatoes, Cheap Potatoes"><tspan x="0" y="0">ZHENG</tspan></text>
      <text id="TERRY" transform="translate(0 19)" fill="#fff" font-size="15" font-family="CheapPotatoes, Cheap Potatoes"><tspan x="0" y="0">TERRY</tspan></text>
    </g>
  </g>
</svg>
