<svg xmlns="http://www.w3.org/2000/svg" width="180.182" height="118.992" viewBox="0 0 180.182 118.992">
  <g id="Group_8" data-name="Group 8" transform="translate(-373.066 -1334.896)">
    <path id="Path_14" data-name="Path 14" d="M490.289,1395.852c-8.968-1.382-12.365.149-15.033,6.535-.948,2.268-6.531,18.9-5.893,23.994,1.105,8.827,7.159,13.085,14.37,16.16,7.272,3.1,17.392,5.064,25.291,2.566,7.345-2.319,11.565-11.28,14.082-18.262,1.906-5.281,4.371-13.579.606-18.284C518.825,1402.451,493.813,1396.4,490.289,1395.852Zm-1.7,42.7c-5.122-.222-11.343-2.8-13.069-8.126-2.507-7.73,2.111-17.985,5.243-24.913a.4.4,0,0,1,.763.246c-1.441,6.889-6.189,15.925-3.855,23,1.674,5.067,7.062,6.538,11.084,9.28A.282.282,0,0,1,488.592,1438.555Zm8.151,2.189c-.917.725-2.278.319-3.283-.028-.767-.265-2.174-.608-2.353-1.523a.212.212,0,0,1,.113-.234c.786-.381,1.85.322,2.64.516.916.229,2.1.2,2.852.825A.285.285,0,0,1,496.743,1440.745Zm22.13-19.281a.31.31,0,0,1-.563-.182c-.095-2.276.685-4.734.113-6.963-.661-2.576-2.967-3.179-4.429-5.084a.231.231,0,0,1,.12-.374c2.686-.463,5.26,2.05,6.128,4.393A8.8,8.8,0,0,1,518.872,1421.464Z" transform="translate(-69.507 -43.682)" fill="#2d2d2d"/>
    <path id="Path_15" data-name="Path 15" d="M797.934,1493.116c-3.18-1.613-27.028-11.285-34.56-9.174-5.8,1.626-8.64,9.8-10.174,15.205-2.029,7.14-3.828,16.88.785,23.047,4.959,6.635,14.324,10.945,22.039,12.67,7.651,1.708,15.051,1.781,21.1-4.744,3.489-3.763,8.658-20.533,9.212-22.927C807.89,1500.449,806.026,1497.223,797.934,1493.116Zm-24.741,36.238c-10.569-.892-21.708-11.7-18.381-23.019a.241.241,0,0,1,.462.023c1.166,5.173,1.772,10.1,5.656,14.153,3.529,3.678,8,5.9,12.46,8.23C773.687,1528.9,773.509,1529.381,773.193,1529.354Zm8.194,1.928c-1.967.75-3.867-.312-5.615-1.165a.268.268,0,0,1,.158-.489,26.068,26.068,0,0,1,5.411,1.088C781.562,1530.8,781.661,1531.179,781.388,1531.282Zm18.64-20.488a.3.3,0,0,1-.541-.174c-.078-5.713-.93-9.288-6.046-12.51-3.366-2.12-7.5-3.049-10.656-5.433a.088.088,0,0,1,.052-.159C790.719,1492.352,806.839,1501.094,800.028,1510.794Z" transform="translate(-272.998 -107.421)" fill="#2d2d2d"/>
    <path id="Path_16" data-name="Path 16" d="M555.441,1400.354a24.7,24.7,0,0,0-1.25-4.694c-4.906-12.941-25.227-17.584-37.026-20.593-9.5-2.421-19.29-2.421-28.746-5-10.186-2.778-18.468-8.882-28.062-13.1-11.575-5.1-33.769-14.15-45.177-4.558-.558.469-1.059.972-1.57,1.469-6.826-1.392-11.5.975-14.19,7.63-1.986,4.9-3.534,13.891,2.721,15.853a75.638,75.638,0,0,0-2.7,16.983,1.824,1.824,0,0,0-.765-.022c-8.168,1.722-13.414,11.7-8.594,19.005,1.767,2.675,4.946,2.782,7.78,2.192,3.374-.7,6.487-2.079,9.909-2.658.046-.008.077-.037.121-.047a41.842,41.842,0,0,0,3.775,2.636c7.889,4.906,19.53,9.14,28.66,9.893a29.523,29.523,0,0,0,25.4-10.1c.107-.119.211-.253.316-.386,1.706,1.175,3.544,2.172,5.338,3.2a41.34,41.34,0,0,0,6.035,3.249q.087.661.189,1.323c1.414,9.221,8.129,16.193,16.09,20.266,6.616,3.385,16.855,7.233,26.446,7.958,4.485,4.821,6.856,12.562,14.64,12.074,3.632-.229,6.639-3.242,7.71-6.578,1.477-4.6-.2-8.134-.917-12.656a1.672,1.672,0,0,0-.269-.681c4.009-4.815,6.632-10.973,8.99-16.723,7.017,1.959,11.109-4.63,13.11-10.707C565.762,1408.413,562.836,1402.022,555.441,1400.354Zm-151.769-37.68c.75-2.04,1.8-4.061,4.01-4.707a8.019,8.019,0,0,1,2.56-.227,46.775,46.775,0,0,0-6.866,15.055C400.951,1370.112,402.412,1366.106,403.672,1362.674Zm-9.1,48.891c-3.021-.529-2.025-6.887-1.118-8.622,1.272-2.437,3.979-3.4,6.089-4.942.072.955.16,1.9.314,2.835a16.964,16.964,0,0,0,4.24,8.425C400.883,1410.121,397.793,1412.128,394.575,1411.565Zm86.049-17.621a9.23,9.23,0,0,1,.586,2.836,40.673,40.673,0,0,0-4.273-.01c-.828,0-1.662-.018-2.5-.02C476.1,1394.333,478.084,1393,480.623,1393.944Zm-8.3,6.7a38.327,38.327,0,0,0,3.911.129,36.809,36.809,0,0,0,4.618-.033,64.828,64.828,0,0,1-2.312,7.489c-1.909-.174-3.847-.149-5.759-.247-1.093-.057-2.209-.139-3.322-.157C470.371,1405.451,471.295,1402.913,472.322,1400.643Zm-3.87,11.223c1.442.092,2.9.1,4.328.171,1.541.077,3.1.2,4.648.157a22.826,22.826,0,0,0-.374,4.395c-1.209-.695-2.463-1.326-3.645-2C471.788,1413.656,470.158,1412.661,468.452,1411.865Zm63.156,46.366c-2.837-1.429-4.491-4.528-6.421-7.308,4.683-.262,9.009-1.484,12.4-4.184.032-.025.057-.055.089-.08.33,1.631,1,3.227,1.2,4.93C539.342,1455.562,535.854,1460.373,531.608,1458.231Zm-6.506-11.813c-8.286.573-17.562-3.048-25.294-5.667-13.231-4.479-21.038-16.7-17.44-30.622,1.581-6.119,4.615-12,1.8-18a1.734,1.734,0,0,0-1.06-1.6c-12.472-6.269-14.213,9.754-18.072,18.048a1.781,1.781,0,0,0-.474.885c-7.031,13.559-23.34,12.659-35.755,8.428-9.171-3.127-20.216-6.47-24.236-16.259-3.051-7.428.868-19.234,2.7-26.777,2.839-11.694,8.917-22.1,22.183-21.942,8.342.1,17.308,3.675,25.123,6.373,8.405,2.9,15.266,8.627,23.378,11.844,14.927,5.922,30.906,5.318,45.969,10.507,7.729,2.663,15.747,4.87,22.161,10.19,10.09,8.369,4.162,23.768-.182,33.579C541.5,1435.348,537.339,1445.57,525.1,1446.418Zm34.427-33.23a23.154,23.154,0,0,1-2.742,6.577c-1.173,1.915-2.937,2.332-4.837,2.419,2.148-5.543,3.872-11.417,3.873-17.281C558.9,1406.682,560.665,1408.486,559.529,1413.188Z" transform="translate(-10.955 -9.594)" fill="#2d2d2d"/>
    <path id="Path_17" data-name="Path 17" d="M730.468,1661.226c-11.357-3.887-21.887-9.039-27.525-20.179-.076-.152-.283-.04-.256.107,2.052,11.432,17.061,19.783,27.74,20.374C730.608,1661.538,730.624,1661.279,730.468,1661.226Z" transform="translate(-238.042 -221.043)" fill="#2d2d2d"/>
    <path id="Path_18" data-name="Path 18" d="M811.389,1715.231c-.747-.1-1.48-.276-2.23-.351-.209-.022-.278.292-.1.386a6.945,6.945,0,0,0,4.115.636c.153-.026.112-.226,0-.271A7.2,7.2,0,0,0,811.389,1715.231Z" transform="translate(-314.79 -274.415)" fill="#2d2d2d"/>
    <path id="Path_19" data-name="Path 19" d="M504.406,1337.144c9.516,1.573,18.223,5.8,27.311,8.8a.194.194,0,0,0,.149-.354c-13.883-7.946-34.948-15.362-50.219-7.034a.068.068,0,0,0,.051.124A49.634,49.634,0,0,1,504.406,1337.144Z" transform="translate(-78.391)" fill="#2d2d2d"/>
    <path id="Path_20" data-name="Path 20" d="M671.16,1378.133a.181.181,0,0,0,.175-.3,6.645,6.645,0,0,0-4.109-1.636c-.185-.016-.237.251-.091.336A16.608,16.608,0,0,0,671.16,1378.133Z" transform="translate(-212.309 -29.825)" fill="#2d2d2d"/>
    <path id="Path_21" data-name="Path 21" d="M941.139,1705.624c.366,2.862.637,5.491-.191,8.313-.885,3.017-3.486,5.285-5.731,7.327a.148.148,0,0,0,.143.246,11.335,11.335,0,0,0,6.053-15.958C941.345,1705.43,941.12,1705.473,941.139,1705.624Z" transform="translate(-405.941 -267.628)" fill="#2d2d2d"/>
    <path id="Path_22" data-name="Path 22" d="M380.605,1512.355c.107-.1-.008-.245-.13-.224-6.856,1.2-8.477,11.751-6.8,17.183a.168.168,0,0,0,.328-.045,60.161,60.161,0,0,1,1.283-9.251C376.187,1516.691,378.157,1514.607,380.605,1512.355Z" transform="translate(0 -127.994)" fill="#2d2d2d"/>
    <path id="Path_23" data-name="Path 23" d="M928.507,1468.832a.188.188,0,0,0,.361,0c2.073-11.5-16.922-20.393-26.157-19.882a.094.094,0,0,0-.025.184C913.339,1452.073,925.973,1456.639,928.507,1468.832Z" transform="translate(-382.43 -82.352)" fill="#2d2d2d"/>
    <path id="Path_24" data-name="Path 24" d="M550.117,1632.208c-3.323-.133-6.525-1.008-9.808-1.407-.1-.012-.136.144-.051.187,5.889,2.968,13.75,3.072,20.016,1.367a.134.134,0,0,0-.036-.262C556.86,1632.135,553.494,1632.343,550.117,1632.208Z" transform="translate(-120.708 -213.695)" fill="#2d2d2d"/>
  </g>
</svg>
