<svg xmlns="http://www.w3.org/2000/svg" width="476.89" height="533.868" viewBox="0 0 476.89 533.868">
  <g id="Group_4" data-name="Group 4" transform="translate(-1406.296 -343.41)">
    <g id="Group_3" data-name="Group 3" transform="translate(1406.93 343.916)">
      <path id="Path_1" data-name="Path 1" d="M266.1,49.405c-5.027-6.386-13.859-7.2-18.615-6.386-4.62.951-10.327,2.853-13.044,9.375,0,0-7.473-1.359-13.044,3.4-5.435,4.756-5.027,11.414-3.4,16.849a77.42,77.42,0,0,0,3.859,9.837,8.071,8.071,0,0,0-1.685,4.973,7.484,7.484,0,0,0,7.2,7.745,6.359,6.359,0,0,0,1.454-.177L219.479,125.5l-2.989,7.745s4.348,5.571,14.675,7.745c7.066,1.495,11.821,1.631,14.946,1.359,2.582-.272,5.707-.815,4.076-5.571-2.31-7.066-1.495-11.549-1.495-11.549l3.234-17.623a12.253,12.253,0,0,0,5.734-.041c4.348-1.359,8.017-5.979,9.375-13.723s1.155-21.849,1.155-21.849-.883-.136-2.31-.408c3.859.272,6.345-.408,7.269-1.671,1.631-2.038-2.038-14.131-7.066-20.517ZM231,94.108c.272-.177.571-.38.842-.6A7.275,7.275,0,0,1,231,94.108Zm-.883.462a3.433,3.433,0,0,0,.5-.245C230.485,94.407,230.295,94.489,230.118,94.57Zm11.237,9.375c.109.054.231.109.353.163Zm1.332.611a3.7,3.7,0,0,0,.34.149c-.136-.041-.231-.1-.34-.136Zm1.63.707c.014.014.027.014.054.027A.071.071,0,0,0,244.317,105.264Zm3.044,1.128a.252.252,0,0,0,.1.027C247.429,106.405,247.388,106.405,247.361,106.392Z" transform="translate(1.373 -41.575)" fill="none" stroke="#fff" stroke-width="1"/>
      <path id="Path_2" data-name="Path 2" d="M217.492,64.048l-.082.435C217.437,64.483,217.478,64.374,217.492,64.048Zm47.095-16.4-.082-.068C264.559,47.634,264.573,47.648,264.586,47.648ZM220.223,81.413l-.014-.027-.068-.1Z" transform="translate(1.703 -39.845)" fill="none" stroke="#fff" stroke-width="1"/>
      <path id="Path_3" data-name="Path 3" d="M275.053,68.468a7.95,7.95,0,0,0-.1-1.155,42.815,42.815,0,0,0-.992-4.43,29.374,29.374,0,0,0-2.527-7.011,32.975,32.975,0,0,0-4.144-6.522,21.8,21.8,0,0,0-7.5-5.707,18.874,18.874,0,0,0-9.348-1.685,1.964,1.964,0,0,0-.707.1,16.617,16.617,0,0,0-2.813.367l-2.677.679-1.06.367a17.666,17.666,0,0,0-2.554,1.169,13.945,13.945,0,0,0-5.19,4.892,11,11,0,0,0-.924,1.957,10.857,10.857,0,0,0-2.147-.367,13.743,13.743,0,0,0-1.712-.041,14.624,14.624,0,0,0-13.533,9.172,16.9,16.9,0,0,0-1.359,7.337,22.893,22.893,0,0,0,1.495,7.283,69.881,69.881,0,0,0,3.56,8.587c.014.027.041.054.054.082a8.865,8.865,0,0,0-1.087,4.253,8.173,8.173,0,0,0,7.881,8.424c.163,0,.326-.027.489-.041l-9.009,29.417-3.125,8.1.231.3c.19.231,4.62,5.788,15.082,7.989a60.565,60.565,0,0,0,12.338,1.495q1.408,0,2.813-.122c1.739-.177,3.669-.5,4.62-1.97.679-1.087.707-2.554.041-4.484-2.215-6.794-1.495-11.169-1.467-11.21L252.81,108.7a17.066,17.066,0,0,0,2.554.217,10.157,10.157,0,0,0,2.826-.38c4.932-1.549,8.519-6.739,9.837-14.267,1.2-6.821,1.2-18.275,1.169-21.251a.54.54,0,0,1,.272.027l.856-.217c.272,0,.788-.054.353.082a3.651,3.651,0,0,0,1.4-.489,5.306,5.306,0,0,0,.951-.272,4.016,4.016,0,0,0,1.182-.883,3.085,3.085,0,0,0,.761-1.495,6.509,6.509,0,0,0,.1-.693l.027-.611ZM248.312,125.4c-.041.19-.815,4.756,1.522,11.889.516,1.495.543,2.622.1,3.329-.611.951-2.174,1.2-3.6,1.359a51.59,51.59,0,0,1-14.743-1.359c-8.615-1.807-12.99-6.074-14.036-7.2l2.853-7.405,9.212-30.1a7.147,7.147,0,0,0,2.079-.938q.169.607.3,1.223c.72,3.016,3.288,5.571,8.1,8.057a46.568,46.568,0,0,0,11.318,4.185Zm18.343-31.387c-1.223,7-4.484,11.821-8.913,13.18-4.076,1.277-11.712-1.454-17.012-4.171-4.348-2.242-6.794-4.593-7.392-7.161q-.259-1.129-.584-2.242l-.272-1.019-.815.679a6.094,6.094,0,0,1-4.008,1.495,7.088,7.088,0,0,1,0-14.131,6.439,6.439,0,0,1,5.435,3.152l.408.652.6-.462c.217-.163,5.3-4.212,7.174-8.913a29.129,29.129,0,0,0,2.038-12.025,50.437,50.437,0,0,0,12.419,6.685,68.4,68.4,0,0,0,12.12,3.125c.014,2.718.027,14.4-1.155,21.129Zm6.25-25.056a5.952,5.952,0,0,0-.082.652.94.94,0,0,1-.462.5,1.146,1.146,0,0,1-.435.136,6.171,6.171,0,0,0-1.359.462l-.72-.068c-.775.054-.543.326-1.427.272.054-.109-1.141-.1-.611-.217-2-.19-4.212-.014-6.875-.951a4.55,4.55,0,0,1-1.454-.19c-.788-.231-1.6-.489-2.419-.774.082.014.177.014.313.041s.353.1.326.136l.217-.082c-1.386-.707-2.717-.747-4.076-1.467.3.19.707.367.679.408l-.87-.367-.544-.272.326.027c-.625-.34-1.223-.707-1.848-1.087l.177.272a10.34,10.34,0,0,0-2.147-1.495c-.516-.2.72.734-.231.136q-.987-.8-1.943-1.63l-2.4-2.12c.163.367-.516-.245-1.2-.707l-.068-.245a2.423,2.423,0,0,0-1.2-.448,1.114,1.114,0,0,1-.408-.122.5.5,0,0,0-.462-.027c-.054.027-.109.068-.163.1l-.109-.082.027.136a1.25,1.25,0,0,0-.543.6,3.3,3.3,0,0,0-.014.639c-.109,1.359-.041,1.861-.136,2.256a4.06,4.06,0,0,0-.041.788,8.645,8.645,0,0,0,.136,1.06c-.027-.761.326-.367.272.584L241,65.561a7.774,7.774,0,0,1,.054,1.046c-.082-.313-.2-.163-.19.6l-.163-.516.231,1.454a12.049,12.049,0,0,0-.136,1.9,3.968,3.968,0,0,1-.245,1.3l-.272,1.155a10.725,10.725,0,0,0-.34,1.549c.027-.476-.448.679-.476.272a7.194,7.194,0,0,1-.408,1.413,5.157,5.157,0,0,1-.815,1.332l.054-.136c-1.495,2.092-2.419,3.777-4.28,5.245.027.014.027.027.027.054a1.015,1.015,0,0,1-.19.163,7.693,7.693,0,0,0-6.142-3.152,7.56,7.56,0,0,0-5.163,2.079.071.071,0,0,1-.027-.054c0-.014,0-.041.014-.027-.408-.815-.38-.639-.231-.272-.027-.014-.041.027-.014.163-.245-.91-1.046-2.378-.883-2.582-1.06-2.473-1.929-4.212-2.636-6.345.041-.272.272.2.5.815q-.256-.741-.476-1.495c.163-.027.326.842.5,1.291-.272-1.834-1.25-3.669-1.114-5.843l-.136-.435.014-.136c-.068.014-.136-.476-.163-.815.136-.3.3.027.38-1.019.2-.815.3-2.31.652-3.356-.217.544-.217.34-.19.082.177-.5.462-.707.543-1.087l.19.041c-.272.109.489-1.291.584-1.467.272-.163-.367.734-.312.91a9.854,9.854,0,0,1,1.9-2.473c.707-.883-.272.014,0-.476a7.87,7.87,0,0,1,2.514-1.9c-.136.014-.272.027-.408.054a8.877,8.877,0,0,1,4.076-1.6,25.527,25.527,0,0,1,6.522-1.264c-.068.367-.027.544.136.462a1.948,1.948,0,0,0,.544-.544c.313-.068.34-.163.217-.272.163-.2.34-.435.571-.707a15.3,15.3,0,0,1,3.859-3.424l-.068.136a34.039,34.039,0,0,1,5.666-2.935c.38.231,2.256-.571,2.921-.544l-.054.041c1.6-.516,3.465-.068,5.1-.136a.786.786,0,0,1-.489.1c1.2.027,2.813.245,2.853.476a19.583,19.583,0,0,1,4.416,1.413,37.324,37.324,0,0,1,3.4,1.848l-.136-.027a2.957,2.957,0,0,1,.951.679c.231.231.489.476.924.9.027.068.068.136.054.136.951.679,2.038,2.65,2.582,3.4l-.082.136c.408.652.788,1.318,1.141,2.011l-.38-.774c.462.1.625,1.631,1.522,3.084.6,1.44,1.929,2.69,2.283,4.348.408.707-.476-.571,0,.5-.177.1-.272-.489-.326-.136.408,1.087.367,1.848.788,3.179l-.136.082a6.833,6.833,0,0,1,.408,2.446c.014.408-.041.707-.041,1.033Zm-32.04-8.384c.014-.014.014-.027.027-.041V60.3A1.529,1.529,0,0,0,240.866,60.574Zm-12.827,23.1a4.079,4.079,0,1,0,3.94,4.076A4.017,4.017,0,0,0,228.04,83.673Zm0,6.794a2.721,2.721,0,1,1,2.582-2.718A2.656,2.656,0,0,1,228.04,90.467Zm19.294-12.5a5.7,5.7,0,0,1,5.3-2.174,1.021,1.021,0,0,0,.136-2.038,7.9,7.9,0,0,0-7.2,2.989,1.006,1.006,0,0,0,.2,1.359,1.069,1.069,0,0,0,1.563-.136Zm15-4.892a.992.992,0,0,0-.707,1.223,1.04,1.04,0,0,0,1.223.679,4.177,4.177,0,0,1,2.853.19,1.411,1.411,0,0,0,.543.217.969.969,0,0,0,.815-.408,1.06,1.06,0,0,0-.272-1.359A5.343,5.343,0,0,0,262.335,73.074Z" transform="translate(1.115 -41.887)" fill="none" stroke="#fff" stroke-width="1"/>
      <circle id="Ellipse_1" data-name="Ellipse 1" cx="1.902" cy="1.902" r="1.902" transform="translate(250.501 39.082)" fill="none" stroke="#fff" stroke-width="1"/>
      <circle id="Ellipse_2" data-name="Ellipse 2" cx="1.902" cy="1.902" r="1.902" transform="translate(264.306 37.994)" fill="none" stroke="#fff" stroke-width="1"/>
      <path id="Path_4" data-name="Path 4" d="M251.425,72.478a.826.826,0,0,0-.543,1.223c.679,1.766,1.9,5.163,1.766,6.386s-1.155,1.359-1.631,1.495a1.035,1.035,0,0,0-.883,1.223,1.082,1.082,0,0,0,1.291.815,3.733,3.733,0,0,0,3.125-3.261c.136-2.174-1.631-6.794-1.9-7.337a.826.826,0,0,0-1.223-.544ZM245.99,86.609a6.288,6.288,0,0,1-5.979-4.484.989.989,0,1,0-1.9.544,8.308,8.308,0,0,0,7.881,5.979.969.969,0,0,0,.951-1.087,1.021,1.021,0,0,0-.951-.951ZM448.757,306.8l.014.136Z" transform="translate(9.117 -30.951)" fill="none" stroke="#fff" stroke-width="1"/>
      <path id="Path_5" data-name="Path 5" d="M427.782,507.906l.177-.041A1.165,1.165,0,0,0,427.782,507.906Zm-9.756.815.136-.041h-.027Zm39.241-9.049c-.5-3.329-1.658-8.587-4.076-12.283-3.22-4.552-36.958-13.153-46.551-15.626a3.494,3.494,0,0,0-3.764,1.563l-.544.815-3.4-15.9a3.4,3.4,0,0,0,1.4-3.614l-2.269-9.647c6.25-1.9,12.46-8.7,13-22.42.815-13.452-7.881-49.051-13.452-69.568s-21.74-63.454-33.018-87.1c-6.25-13.221-15.014-35.518-21.523-52.625l.978-6.223H242.787c-2.038,12.636-4.511,34.1-8.9,52.448-5.408,31.931-8.248,36.754-13.764,44.35-7.473,6.794-30.029,15.041-50,18.846a193.658,193.658,0,0,0-37.841,11.454c-4.552,5-5.435,9.2-4.81,16.074l-8.533,2.228a3.277,3.277,0,0,0-2.446,3.94l.109.448-10.286,2.69a32.18,32.18,0,0,0-4.1,1.4,5.123,5.123,0,0,0,.815-.815c.611-.87.774-2.242-.217-2.853-3.4-1.766-14.865-5.381-27.99-5.843a3.118,3.118,0,0,0-2.949,2.4L57.113,436.069a2.4,2.4,0,0,0,2.147,2.962c3.315.544,8.669,1.087,12.949-.054,5.326-1.631,24.009-31.048,29.349-39.363a4.12,4.12,0,0,0,.435-1.223,31.685,31.685,0,0,0,8.941-1.631l14.715-3.669.054.231a3.889,3.889,0,0,0,4.756,2.853l7.066-1.862q.311,1.143.679,2.269c1.9,5.571,10.6,12.5,31.116,9.375s77.993-22.827,108.565-42.121c11.441-7.229,20.069-13.723,26.795-20.477l12.039,20.015c3.125,6.25,6.006,12.555,6.685,28.724.543,16.169-.543,42.257,6.794,53.535,6.359,9.606,13.234,11.9,23.507,10.789l2.582,8.234a3.8,3.8,0,0,0,4.62,2.582l.652-.136,2.935,12.093a31.545,31.545,0,0,0,1.467,4.443.193.193,0,0,0-.027.082c-.625,3.8-.489,15.8,3.152,28.425a3.09,3.09,0,0,0,3.207,2.038l82.748-11.59a2.375,2.375,0,0,0,2.174-2.935Z" transform="translate(-55.822 17.366)" fill="none" stroke="#fff" stroke-width="1"/>
      <path id="Path_6" data-name="Path 6" d="M391.045,509.855l.489-.027A1.648,1.648,0,0,0,391.045,509.855ZM98.586,381.316h0l.082.014ZM232.478,309.03l.34-.19-2.554,2.174c-.489.489,1.087-.679,0,.231a24.455,24.455,0,0,1-2.677,1.834l-3.125,1.834c.245,0-.3.3-.856.625l-.109-.054c-2.106,1.318-.9.245-3.057,1.413l.163-.136-.5.462c-1.929,1.128-1.155.34-3.343,1.522.9-.38.516.027-.625.448l.245-.2-1.223.543c.353-.2.136-.2-.761.163l.571-.353c-.543.3-1.128.544-1.685.815l-4.1,1.318-3.6,1.25c.571-.272-1.087.19-.639-.054a25.784,25.784,0,0,1-3.94,1.25l.163-.068-8.832,2.5c.177.082-1.454.448-1.019.489-3.125,1.005-5.843,1.25-6.862,2a20.3,20.3,0,0,1-2.487.516l.34-.109-5.476,1.495a21.157,21.157,0,0,1-2.894,1.019c.544-.245-.177-.027-.842.163.408-.136.544-.2-.353-.014l-.476.19c-.014,0-.041,0-.027-.014-1.114.353-.91.313-.38.177-.027.014.027.027.19,0-1.2.231-3.234.924-3.4.842l-8.343,3.071c-.326.041.272-.272,1.06-.571l-1.929.734a8.945,8.945,0,0,1,1.685-.707c-1.182.34-2.364.815-3.587,1.3L153.7,338.5l-.516.3-.163.054a4.643,4.643,0,0,1-.951.516c-.408.082-.054-.217-1.359.38a40.3,40.3,0,0,0-4.212,2.038c.72-.34.516-.177.217,0l-1.522.679-.136-.082c.313-.014-1.631.924-1.821,1.114-.408.1.951-.584,1.087-.72l-3.8,2.038c-1.291.815.3-.027-.272.408l-3.614,2.147.476-.136-4.837,3.084a37.058,37.058,0,0,0-6.277,5.775c-.734.978-.571,1.033-.041.6l2.31-1.821,1.59-1.2,7.745-5.245,9.076-5.163,4.457-2,3.574-1.427,3.641-1.4,4.728-1.739,11.033-3.478c1.631-.679,4.715-1.3,6.712-1.984l.815-.109,2.215-.625-.041.041c1.019-.353,2.215-.625,2.718-.788l-.041.041,1.264-.353-.2.1,5.34-1.495-.163-.082,8.017-2.174-.041.041a46.72,46.72,0,0,1,5.163-1.59l5.245-1.766c-.5.217.231-.027.2.027,1.861-.707,3.872-1.44,3.8-1.671,1.359-.543,1.128-.38,1.332-.367a9.553,9.553,0,0,1,2.174-1.033l-.462.231,2.962-1.359-.679.1c1.59-.679.5.027,1.97-.72l-.1-.136,2.785-1.318,1.318-.6,1.4-.788a33.407,33.407,0,0,0,10.435-10.435c2.677-4.212,4.117-8.9,5.476-13.126l.231-.34c.231-.136.353-2.446.6-2.745l.177-1.019c.1-.272.272-.87.19-.353a10.669,10.669,0,0,0,.326-1.631l.34-.978c.883-3.669,1.386-6.848,2.147-10.734,1.169-4.62,2.446-13.52,3.166-18.615.611-5.027,1.726-10.544,2.582-15.925q.372.038.747.041c1.834.014,2.717-.476,4.756-1.046a21.741,21.741,0,0,0,4.212-1.06,27.963,27.963,0,0,0,2.622-1.087c.326-.34,1.087-.489,1.495-.815h.217a.746.746,0,0,1,.489-.272v.027c.2-.19.489-.272.584-.38v.027l.272-.163-.027.068a8.532,8.532,0,0,1,1.155-.679l-.1-.082c.815-.353.978-.734,1.739-1.033v.027c.679-.815,1.427-.775,2.106-1.63-.082.109.082.014.1.041.38-.3.734-.679.6-.856.272-.231.272-.136.353-.1-.068-.082.136-.312.34-.489l-.068.109.571-.543-.245-.041c.353-.231.245.109.5-.19l-.109-.109c.448-.353.815-.448,1.3-.775q.624-.628,1.2-1.3l1.019-1.467c.707-.951,1.3-1.929,2.011-2.745h.136c.163.068.109-.639.272-.611l.068-.245c.068-.041.177-.136.136-.027a.57.57,0,0,0,.136-.38l.231-.136c.543-.72.788-1.467,1.332-2.256a17.328,17.328,0,0,0,2.2-3.94c.611-1.63,2.174-3.125,2.677-4.864.054-.041.068-.2.041-.2l.707-1.495s.231-.5.476-1.155H288.16a3.986,3.986,0,0,0-.177.72c-.245-.014-.326.652-.476.815v-.027c-.054.571-.611.924-.679,1.467a.169.169,0,0,1-.014-.177c-.136.353-.326.815-.462.815a14.086,14.086,0,0,0-1.087,2.5v-.054c-.027.353-.19.38-.3.747-.027.014-.041.027-.054.014-.041.38-.489.924-.584,1.223l-.082-.027-.34.625.136-.217c.163.2-.408.38-.544.91-.272.408-.054,1.114-.408,1.495-.027.272-.054-.272-.163.068-.136-.054.014-.19-.136-.163-.136.34-.408.408-.571.842l-.1-.041c-.136.584-.679.815-.734,1.25-.245.543-.462.163-.625.788l-.245.136c-.163.2.041.245-.177.448-.068-.068-.272.272-.231.082-.476.476-.584,1.223-1.25,1.794.041.272-.312.516-.272.707-.068-.027-.543.679-.367.19.014-.041.054-.1.082-.082l-.041-.109c-.435.272-.448.747-.761,1.114.109-.1.217-.245.19-.109l-.272.34-.014-.136-.435.489h.136c-.272.2-.476.163-.611.543-.054.177.313-.136.109.136-.353.272-.87.679-1.264,1.046.136.041.014.136-.068.272l-.082-.054c-.326.5-.313-.014-.679.448l-.014-.082.027.272c-.272.489-.353.027-.6.611.163-.163.231.1-.014.272l-.014-.136a1.553,1.553,0,0,1-.2.245c.041-.109-.054-.136-.217.027l.041-.19-.2.408c-.312.136-.679.544-.87.544,0,0-.625.38-.679.6.068-.163-.272.041-.272-.109-.1.19-.476.611-.734.625l.027-.027c-.761.34-1.087.87-1.794,1.141.082.082-.272.231-.136.313-.6.5-1.359.38-1.4.924-.3.19-.408.1-.584.163l.068-.054a6.891,6.891,0,0,1-1.182.6c-.2.136-.136.353-.571.489.1-.136-.068-.054-.2.014.1-.054.109-.1-.109-.068-.014.041-.054.068-.082.1l-.014-.014c-.231.136-.177.136-.068.109,0,.014.014.027.054.027-.3.027-.734.3-.815.177-.747.313-1.223.679-1.875.951-.1-.054.027-.163.217-.245l-.448.177c-.027-.109.245-.136.38-.2-.6.014-1.087.543-1.766.584l-.109.136h-.041c.014.041-.109.136-.2.177-.136-.068-.054-.217-.367-.136a3.33,3.33,0,0,0-1.033.38c.19-.027.136.027.068.082-.163.041-.272-.027-.408.041l-.041-.136c.1.109-.408.217-.448.272-.109-.068.231-.136.272-.217l-.978.245c-.326.177.082.109-.054.272a3.045,3.045,0,0,1-.951.217l.136.1a2.511,2.511,0,0,1-1.359.177q-.709.247-1.4.544c.326-2.079.611-4.131.815-6.114a4.852,4.852,0,0,0,.068-.856l.924-6.739s1.087-8.153,1.522-13.275c.408-5.1.353-7.093-1.9,5.245l-.014-.177c-.543,3.669-.883,5.979-1.019,8.56a32.6,32.6,0,0,0-.625,3.872l-.014-.082c-.136,2.269-.775,4.62-.924,6.794a1.285,1.285,0,0,1,0-.639,24.837,24.837,0,0,1-.6,3.845c-.516,3.764-1.359,9.009-1.522,11.454l-.014-.177c-.068,1.4-.272,1.766-.408,3.329-.027.082-.054.19-.068.163-.082,1.522-.679,4.348-.815,5.571l-.109.068-.476,2.989.2-1.114c.19.435-.543,2.215-.761,4.4-.408,2-.19,4.185-.734,6.25-.082,1.019-.014-.91-.217.6-.136.027.054-.707-.136-.34-.217,1.467-.6,2.364-.856,4.185l-.109.054c-.272,2.391-1.087,4.375-1.223,5.979-.448,2.419-.625,1.549-1.046,4.076l-.38.951c-.272,1.06-.027.815-.38,1.97-.068-.1-.435,1.467-.34.761-.9,2.582-1.277,5.435-2.853,8.655a18.417,18.417,0,0,1-1.169,2.921c-.054.027-.462.815-.788,1.359-.367.516-.584.815-.1-.054.1-.136.217-.408.231-.408l.027-.272c-.543.856-1.087,1.576-1.522,2.378a11.564,11.564,0,0,1-1.63,2.31c.408-.435.9-1.046.611-.6l-1.2,1.427.177-.353a11.458,11.458,0,0,1-1.834,1.9ZM221.132,276.6l-.054.027C221.078,276.665,221.091,276.665,221.132,276.6ZM79.984,408.261h0l-.054.041Z" transform="translate(-47.619 17.388)" fill="none" stroke="#fff" stroke-width="1"/>
      <path id="Path_7" data-name="Path 7" d="M320.85,323.421a121.028,121.028,0,0,0,6.006-16.142c4.43-14.131,8.968-41.347,11.522-57.027l3.777-22.474,1.794-10.191c3.506,8.927,6.332,15.517,9.484,23.1.245.951-.625-.883-1.6-3.207l2.351,5.707a47.31,47.31,0,0,1-2.174-4.987c2.446,6.93,5.938,13.9,9.158,21.876l.87,1.576.19.476a22.648,22.648,0,0,1,1.495,2.813c.367,1.169-.367.1,1.44,3.94,1.3,3.084,3.995,8.655,5.8,12.636-.91-2.174-.543-1.522-.068-.611.842,1.957,1.155,3.125,1.862,4.62l-.1.2c.272.19,2.31,5.163,2.663,5.8.313,1.182-1.359-2.989-1.685-3.438l4.81,11.821c1.807,4.171-.109-.842.856,1.114,1.495,3.723,3.057,7.337,4.552,11.685l-.34-1.427c2.8,7.011,4.294,11.278,5.815,16.115l8.832,24.023c1.277,3.533,1.386,3.22,1.019,1.223-.2-1.005-.543-2.446-.91-4.008l-1.332-4.864-1.766-5.815c-3.3-10.6-6.223-18.479-9.457-26.822-3.261-8.316-6.821-17.08-12.025-29.213-4.43-10.734-7.7-17.365-10.558-24.132l-10.191-24.865-5.761-14.756-2.31-5.979.326-1.9.544-3.22h-2.718l-2.242,14.4-2.065,14.158.027-.516c-.462,4.253-.883,5.462-1.563,10.191-.068.272-.136.584-.136.544-.544,4.62-2.31,13.384-2.881,17.12l-.19.217-1.658,9.1.679-3.4c.177,1.25-1.535,6.848-2.609,13.479-1.291,6.142-1.712,12.677-3.492,18.968-.543,3.071.353-2.745-.625,1.821-.245.1.38-2.147-.068-1.019-.476,2.228-1.087,3.995-1.658,5.911L322.29,314.6l-.231.136a56.383,56.383,0,0,1-4.036,9.375l-2.174,3.872c-.747,1.182-1.413,2.31-2,3.37-1.06,1.549-1.766,2.582-2.364,3.315s-1.06,1.182-1.495,1.658c-.87.951-1.766,1.929-4.294,4.919l-2.31,2c-2.446,2.283-1.535,1.861-4.348,4.253.082-.272-3.669,2.935-2.092,1.427-1.63,1.332-3.343,2.582-5.027,3.94l-5.381,3.981c-1.9,1.318-3.832,2.718-5.979,4.049l-3.261,2.038-3.533,2c-1.875,1.549-6.93,4.008-8.384,5.082-.313.041-10.014,5.068-4.525,1.984a8.335,8.335,0,0,1,1.291-.625l.6-.489c-2.894,1.3-5.435,2.65-8.017,3.94l-3.872,1.97c-1.318.639-2.69,1.264-4.131,1.9,1.726-.707,3.981-1.739,2.514-.951l-5.34,2.364,1.06-.625c-2.65,1.182-5.354,2.228-8.017,3.356l1.169-.313c-3.94,1.6-5.476,1.821-9.837,3.859-1.97.951,3.832-1.291-.326.435l-20.313,7.066c.707-.041-1.141.6-3.044,1.291l-.272-.082c-7.269,2.582-2.785.584-10.055,3.016l.611-.313-1.834.924a30.4,30.4,0,0,1-5.19,1.535,55.306,55.306,0,0,0-5.734,1.671c2.921-.788,1.495,0-2.174.87l.87-.408c-1.984.543-2.636.775-3.981,1.046,1.169-.353.571-.38-2.364.326l1.929-.652-2.758.775-2.758.652c-1.087.177-2.31.313-3.614.462-1.277.19-2.609.272-3.845.353a27.116,27.116,0,0,1-5.53-.068l-1.495-.1c-.883-.136-2.12-.19-3.356-.462a34.5,34.5,0,0,1-6.114-1.671c.856.313.163-.068-.571-.476s-1.4-.951-.775-.679a11.458,11.458,0,0,1-4.307-3.424,7.949,7.949,0,0,1-.87-1.359,10.788,10.788,0,0,1-.571-1.454,24.586,24.586,0,0,1-.679-2.718l.163.543-6.576-27.447c-.068.476-1.223-4.552-1.169-3.261a57.268,57.268,0,0,1-2.487-12.935c-.272-3.669-.5-6.576.163-8.207,3.723-9.144,10.15-9.158,22.243-12.976,1.766-.544,37.148-8.248,45.681-10.952.856-.136-.476.367-2.446,1.005,1.685-.5,3.37-1.019,5.055-1.59a40.7,40.7,0,0,1-5.326,1.794,72.565,72.565,0,0,0,10.87-4.008c1.875-.815,4.076-1.631,5.979-2.65a40.927,40.927,0,0,0,6.114-3.669,13.76,13.76,0,0,0,1.318-1.359l.408-.353c-.068-.027,1.3-1.495,2.147-2.554.91-.9.34.408,2.935-3.288a32.052,32.052,0,0,0,3.234-6.142c.978-2.446,1.834-5.068,2.473-7.256-.788,2.31-.625,1.549-.353.543.679-2.092,1.169-3.261,1.6-4.892l.2-.109c-.054-.34,1.4-5.68,1.495-6.413.462-1.169-.72,3.329-.775,3.872,2.242-8.506-.19-2.446,1.9-10.952.951-4.593-.014-1.59.326-3.8.924-4.022,4.647-27.2,5.8-32.311,1.97-12.5,2.065-22.148,2.5-26.441h-.951l-1.169,5.979-1.141,6.114c-2.147,11.142-7,44.2-8.18,49.323s-1.658,10.435-3.044,17.012a57.132,57.132,0,0,1-5.775,13.52,31.856,31.856,0,0,1-3.6,4.593,31.36,31.36,0,0,1-4.076,3.628c-22.392,11.441-60.872,15.259-80.1,24.213-6.93,3.234-8.085,11.06-8.153,11.522-.136.815-.177,1.59-.231,2.256v1.631l-.041-.136a35.375,35.375,0,0,0,.177,3.614c-.014,0-.041.014-.054.014l-.027-.136c0,.054.014.1.014.136a8.29,8.29,0,0,1-2.391.5c-9.321,4.035-1.495,2.582-1.495,2.582a26.28,26.28,0,0,0,4.171-.978c.788,5.2,2.337,10.191,3.329,14.62l.1-.476,5.788,24.865-.082-.136.625,2.079-2.242.679c-1.223.367-2.541.775-3.641,1.033a2.361,2.361,0,0,1-2.31-.815l.041-.231c.082-.136-.136-.177-.34-.313s-.408-.3-.313-.408a2.043,2.043,0,0,1-.245-.326c.014-.136-.014-.489.136-.231a1.909,1.909,0,0,0-.34-.815l.041-.571c-.353-1.984-1.087-3.56-1.549-5.639-.272-2.554-1.766-7.12-2.609-9.756-1.359-3.669-1.332-8.316-2.772-12.039a.72.72,0,0,0-.19-.421l-.842-3.533-.639-2.446a15.713,15.713,0,0,1-.489-1.97,2.527,2.527,0,0,1,.38-1.427c.5-.815,1.318-1.087,1.046-1.386-.136-.109-.571-.272-1.413.014a3.3,3.3,0,0,0-1.359,1.046,3.949,3.949,0,0,0-.788,2.554l-.082-.109a6.285,6.285,0,0,0,.136.815l.136.639q.107.577.272,1.141a9.368,9.368,0,0,0,.734,1.957c-.326.3.353,1.59.353,2.079l-.041-.041c.584,1.087.367,2.487.91,3.56a.425.425,0,0,1-.217-.3c.272.815.625,1.929.408,2.038.544,1.957,1.141,4.756,1.807,5.924l-.082-.068a9.977,9.977,0,0,1,.6,1.7c-.014.054-.014.109-.027.109a22.707,22.707,0,0,1,.87,2.894l-.136.082.408,1.563-.109-.6c.448.109.041,1.25.584,2.31.217,1.087,1.359,1.943,1.454,3.1.326.476-.408-.38-.082.367-.2.082-.217-.34-.34-.1.3.747.1,1.318.476,2.242l-.136.082c.611,1.169.367,2.391.856,3.152.408,1.087-.082,1.033.19,1.766-.367.041-.734.1-1.155.163-3.044.72-6.169,1.59-9.24,2.4l-2.31.611-.571.136c-.177.041-.462.136-.611.177l-.815.245a1.521,1.521,0,0,0-.313-1.06c.217-.109-.068-.408-.014-.543l.027.014c-.245-.272.014-.679-.2-.924.027.014.082,0,.109.068-.068-.2-.19-.489-.054-.543a4.178,4.178,0,0,0-.516-1.522l.041.014c-.19-.163-.068-.245-.19-.435l.027-.027c-.19-.177-.136-.6-.245-.747l.082-.027-.109-.408v.163c-.272,0,.082-.34-.136-.6-.027-.272-.625-.448-.571-.761-.136-.109.217.082.082-.109.136-.027.1.082.19,0-.109-.19.054-.353-.082-.584l.1-.027c-.245-.272,0-.639-.217-.815-.136-.313.245-.272-.027-.6l.109-.163c-.014-.136-.19-.068-.163-.245.082-.014.027-.217.136-.136.054-.408-.353-.72-.231-1.25-.19-.068-.136-.34-.272-.408.068-.027-.1-.5.136-.272.014.027.027.068,0,.068l.109.014c.136-.312-.2-.489-.245-.774-.014.1.014.19-.068.136l-.041-.272.1.041-.027-.408-.1.068c.014-.2.177-.3-.014-.489-.1-.082-.1.2-.177.014a6.04,6.04,0,0,0,0-.992c-.109.054-.136-.027-.163-.136l.1-.027c-.2-.313.19-.177.014-.489l-.136-.027c-.272-.272.177-.2-.163-.489.041.136-.2.109-.2-.068h.109c-.041-.082-.082-.109-.082-.177.068.041.136,0,.1-.136l.136.068-.231-.217c.068-.217-.136-.5-.014-.611,0,0-.027-.435-.19-.5.109.068.1-.177.217-.136-.136-.082-.272-.408-.19-.544v.027c.014-.5-.326-.788-.272-1.223-.109.041-.1-.19-.231-.109-.245-.408.136-.87-.367-.951-.068-.19.054-.272.054-.367l.041.041a3.438,3.438,0,0,1-.19-.761c-.068-.136-.272-.109-.3-.367.1.068.068-.041.041-.136.027.054.054.068.1-.068a.3.3,0,0,1-.068-.054l.014-.014c-.068-.136-.082-.136-.082-.041q-.02,0-.041.041c.068-.19-.109-.448.041-.5-.136-.462-.353-.774-.489-1.141.068-.054.136.014.2.136l-.082-.272c.109-.014.1.136.136.231.109-.367-.313-.639-.245-1.087l-.1-.068.014-.027c-.041.014-.136-.068-.136-.136.082-.068.217-.041.163-.231.054-.177-.136-.408-.231-.611.014.109-.054.082-.1.054-.027-.1.054-.177,0-.231l.136-.041c-.109.068-.177-.217-.245-.245.082-.068.109.136.19.136-.1-.38-.041-.19-.136-.571-.136-.19-.109.068-.245-.014a1.1,1.1,0,0,1-.163-.543l-.1.1a1.089,1.089,0,0,1-.136-.788c-1.44-2.351-1.359-.272-1.359-.272-.041,1.046.408,1.495.734,2.663a13.725,13.725,0,0,0,.326,2.446c.1.516.272,1.06.408,1.563.217.2.136.679.34.91l-.068.136a.314.314,0,0,1,.1.3h-.027c.109.136.1.3.136.367H104.4l.054.177h-.041a1.712,1.712,0,0,1,.2.734l.109-.041c-.027.516.272.652.19,1.128H104.9c.408.5-.014.951.408,1.454-.054-.068-.054.041-.082.041.1.272.163.543.408.5.041.19-.041.177-.136.217.1-.027.177.136.217.272l-.054-.068.136.435.163-.136c0,.245-.217.109-.136.326l.136-.041c.041.326-.163.571-.2.9.2,1.3.9,2.609.87,3.859l-.109.082c-.163.054.326.272.177.353l.109.136c-.027.041-.041.136-.1.068.027.136.054.136.136.2l-.082.163a14.529,14.529,0,0,0,.408,1.454,6.868,6.868,0,0,0,.639,2.527c.462.924.027,2.215.544,3.152-.014.041.054.109.068.109l.177.924q.115.533.258,1.06a22.815,22.815,0,0,1-3.261.584l-.272-.082c-.082-.109-.788.136-1.277.245a4.633,4.633,0,0,0-.543-2.12,4.876,4.876,0,0,0-.571-.788l-.435-.489q-.424-.488-.829-.992a22.535,22.535,0,0,1-2.908-4.579,37.164,37.164,0,0,1-2.446-8.7,28.373,28.373,0,0,1-.231-5,18.969,18.969,0,0,1,.571-4.267,12.175,12.175,0,0,1,2.391-4.8,25,25,0,0,1,4.321-3.859,7.847,7.847,0,0,0,1.359-1.264,4.268,4.268,0,0,0,.326-.571c.951-.34.639.068,2.038-.544-.625.177-.353-.136.435-.3l-.177.136a8.265,8.265,0,0,1,.842-.272c-.245.109-.1.177.544,0l-.408.217,1.155-.476a14.631,14.631,0,0,0,1.59-.353c.544-.136.5-1.807.5-1.807a.933.933,0,0,1-.231.068c-.136.054-.3.109-.476.163.326-.136-.163-.027-.136-.054-1.25.34-2.582.679-2.554.924-.924.231-.761.109-.91.054a4.3,4.3,0,0,1-1.467.516l.326-.136-.679.19c0-.041.014-.082.014-.136a2.761,2.761,0,0,0-1.128-2.228,2.907,2.907,0,0,0-.557-.34l-.408-.2c-.245-.136-.489-.217-.72-.326a31,31,0,0,0-5.748-1.848,2.826,2.826,0,0,0-.883-.163c-2.269-.639-4.565-1.169-6.875-1.631,0,0-2.106-.408-4.892-.775a64.324,64.324,0,0,0-8.968-.544,3.56,3.56,0,0,0-2.188.91,3.669,3.669,0,0,0-.978,1.359c-.245.679-.217,1.06-.1,1.087-.027.231.014.34.1.231a5.588,5.588,0,0,1,1.386-1.59,2.512,2.512,0,0,1,2.011-.543,1.207,1.207,0,0,0-.313-.014c.408.041.951.163,1.495.245q1.05.161,2.092.367l-.068.014c.544.082.72.041.584.38l-.041.177-.1.462-.163.87c-.2,1.128-.367,2.174-.476,3.234-.3.272-.5,2.514-.72,3.22v-.068c-.177,1.9-.883,3.832-1.087,5.666a1.308,1.308,0,0,1,.014-.543,16.3,16.3,0,0,1-.679,3.207c-.571,3.152-1.467,7.528-1.631,9.579v-.136c-.082,1.182-.272,1.495-.435,2.785-.027.068-.054.136-.068.136-.1,1.277-.679,3.669-.815,4.674l-.1.054-.462,2.5.2-.924c.19.367-.516,1.848-.707,3.7-.353,1.685-.136,3.533-.6,5.258-.041.856-.041-.775-.19.489-.136.014.027-.6-.136-.3-.177,1.223-.516,1.984-.72,3.533l-.109.041c-.2,2.011-.842,3.709-.924,5.055-.313,2.038-.544,1.3-.774,3.478l-.3.815a16.639,16.639,0,0,1-.217,1.671c-.068-.082-.313,1.264-.272.652-.571,2.256-.679,4.661-1.495,7.609.041.679-.353,2.174-.313,2.69-.082.068-.6,3.03-.408,1.3.014-.136.068-.408.1-.38l-.054-.217a48.379,48.379,0,0,0-.842,4.824c.136-.5.245-1.169.231-.707l-.313,1.576-.109-.272-.5,2.337.163-.3a12.338,12.338,0,0,0-.625,2.826c-.027.6.34-1.06.136.163l-1.155,4.946a.208.208,0,0,1,.068.1c-.014.027-.1.027-.19.027v-.109c-1.9-.054-.856-.245-2.473-.408l-.1-.014a.511.511,0,0,1-.136-.014l.136-.054a1.793,1.793,0,0,1-.408.136c-.625-.136-.679-.38-.747-.543a4.511,4.511,0,0,1-.34-1.005c.068.543-.3.367-.109-.543a1.924,1.924,0,0,0,.054.272c.068-.543.068-.747.136-1.087-.014.34.109.2.245-.625l.027.571.1-1.59c.313-1.182.544-3.1.747-3.574A21.76,21.76,0,0,0,60.1,426.7c0,.543.272-.883.326-.462a16.968,16.968,0,0,1,.544-3.451l-.014.136c.639-2.894.734-5.027,1.359-7.609-.136.1.177-1.277-.041-.951.34-2.745,1.182-4.892.9-5.951a17.313,17.313,0,0,1,.5-2.079l-.027.3.815-4.7a14.146,14.146,0,0,1,.245-2.582c0,.516.1-.136.19-.679-.054.367-.041.489.136-.272a2.459,2.459,0,0,1,.014-.435c.014,0,.014-.041.027-.014.136-.951.082-.815,0-.353-.014-.027-.027.014-.082.136a28.829,28.829,0,0,1,.652-2.853c.476-2.894.679-4.973,1.087-7.392.136-.272.1.313,0,1.019l.272-1.712a5.825,5.825,0,0,1-.19,1.522c.544-2,.571-4.212,1.155-6.563v-.5l.041-.136a3.116,3.116,0,0,1,.041-.9c.136-.313.217.068.408-1.114.272-.91.408-2.65.6-3.872-.136.652-.136.435-.136.136.1-.584.272-.91.3-1.359l.136-.027c-.163.2.136-1.563.136-1.766.136-.313-.082.924-.041,1.087l.611-3.533c.136-1.277-.163.2-.163-.408.177-1.114.272-2.215.584-3.478l-.19.38a33.818,33.818,0,0,1,.883-4.729c.788-6.658.788-8.288.516-7.976-.313-2.242-1.9,5.027-1.9,5.027-1.766,7.392-1.9,11.332-3.343,20.245-1.495,7.786-2.228,9.783-3.533,17.908l-2.011,11.767c-.041,1.848-.883,4.959-1.033,7.12l-.313.788a9.884,9.884,0,0,1-.367,2.31l-.041-.054c-.068,1.114-.367,2.31-.408,2.881L58.7,421.5l-.217,1.332-.027-.245a54.679,54.679,0,0,1-.924,5.6l.217-.109c-.435,1.821-.625,3.1-.815,4.321l-.3,1.861-.2,1.033q-.061.294-.136.584a4.511,4.511,0,0,0-.1.883l-.054-.068a3.917,3.917,0,0,0,2.65,3.356,8.012,8.012,0,0,0,.87.19l.625.136,1.3.245a18.979,18.979,0,0,0,5.815.272c-.571.068.245.1.2.136,2.12-.081,4.416-.543,4.348-.951l1.318-.272c.2-.027.2.041.353.054.014-.136,1.223-.992,2.065-1.834l-.38.408a31.4,31.4,0,0,0,2.391-2.473l-.679.272c1.277-1.25.6-.068,1.671-1.4l-.217-.163c1.63-1.834,2.826-2.717,4.43-4.484,6.033-7.813,11.237-16.984,16.577-24.349l.38-.231c.34.014,1.005-2.351,1.413-2.487l.462-.951c.2-.217.584-.72.367-.245a7.1,7.1,0,0,0,.815-1.522,2.942,2.942,0,0,0,.408-.543,4.584,4.584,0,0,0,.34-.625c.027-.082.027-.163.054-.231a2.576,2.576,0,0,1,.544-.041c-.041.1,1.046-.054.571.082,1.9-.082,3.669-.788,6.074-1.264a3.614,3.614,0,0,1,.462-.231l.231-.1.3-.082a4.393,4.393,0,0,0,.951-.326c.082.054,2.337-.571,1.087-.1-.109.041-.313.082-.3.054l-.136.136a25.605,25.605,0,0,0,3.669-.992c-.408.068-.91.2-.584.054l1.223-.272-.231.136,1.821-.408-.272-.041a8.067,8.067,0,0,0,2.215-.462c.435-.19-.87.068.054-.19l3.737-.734a1.505,1.505,0,0,1,.462.707c-.177.041.544.951.136.625,1.06,1.807,3.628,2.31,5.938,1.9.34-.38,1.332-.462,1.576-.747.082.109,1.9-.476.91.054-.082.041-.245.082-.245.041l-.082.19c1.155.027,1.9-.679,2.989-.91-.326.027-.747.136-.489-.027l.815-.2c.014.041.027.068.041.109l-.041.041.041-.014c.1.272.19.543.272.815q.212.549.448,1.087a11.955,11.955,0,0,0,1.182,1.984,17.469,17.469,0,0,0,6.495,5.3c4.892,2.4,10.435,3.207,17.175,2.718-1.685.109.734.082.6.109,6.25-.408,12.691-1.943,12.677-2.337,4.348-.978,3.574-.707,4.171-.679-.068-.177,3.669-1.141,7.025-2.133l-1.522.5,9.552-2.853-1.957.272c5.068-1.467,1.4,0,6.21-1.6l-.136-.231c3.478-1.114,6.277-1.875,9.022-2.718,2.758-.815,5.489-1.59,8.832-2.718a400.9,400.9,0,0,0,41.374-17.528c6.7-3.4,13.316-6.848,19.5-10.734,6.182-3.845,12.093-7.813,17.6-11.957l1.087-.584c.652-.054,5.571-5.19,6.481-5.761.761-.761,1.522-1.495,2.228-2.31.679-.611,2.038-1.929.978-.734a33.672,33.672,0,0,0,3.438-3.9c.775-.734,1.467-1.549,2.174-2.351a68.875,68.875,0,0,0,8.9-14.321ZM61.6,407.392l.027.041Zm-.082.679-.163.951C61.408,408.75,61.463,408.4,61.517,408.071Zm-2.378,13.887h0l-.027-.041Zm-2.31,14.131a1.435,1.435,0,0,0,0-.353A2.86,2.86,0,0,1,56.829,436.089Zm.109-.543a2.226,2.226,0,0,0,.136-.544,4.715,4.715,0,0,1-.136.543Zm2.419,4.076a2.815,2.815,0,0,1-.8-.217,2.815,2.815,0,0,0,.8.217Zm41.836-41.062a3.5,3.5,0,0,0-.3.435,9.972,9.972,0,0,0-.679,1.223l-.747.734a2.917,2.917,0,0,0-.462.951c-.177-.082-.408-.136-.679-.272-.3-.326-.245-.571-.652-.815a3.334,3.334,0,0,0-.544-.408c-.19.068-.217-.177-.408-.136l.027-.109c-.068.014-.136,0-.136-.068l.027-.014c-.1.014-.136-.068-.163-.054h.027l-.068-.041.041-.027a.331.331,0,0,1-.272-.177l-.082.109c-.068-.231-.272-.1-.34-.34l.027-.014c-.38.082-.136-.408-.544-.34.041-.014.027-.054.054-.082a.249.249,0,0,0-.367.068c-.054-.054,0-.1.041-.177a.139.139,0,0,1-.2.027l.054-.014-.163-.1-.1.163c-.041-.109.136-.19.027-.217l-.109.136c-.082-.109.014-.353-.014-.516-.367-.408-1.087-.476-1.291-1.019l.054-.109c.109-.136-.272.109-.19-.027l-.1.027c.014-.041,0-.082.054-.1-.041-.041-.054-.014-.136,0v-.136c-.109-.2-.38-.163-.544-.34-.068-.34-.584-.543-.883-.625-.489-.068-.408-.91-.924-.951,0-.027-.054-.014-.068,0l-.272-.272s-1.4-1.277-1.25.761v.027c.109.2.19.313.408.272-.136.19.136.136.109.217v.014c.217-.054.109.272.313.245-.014.014-.054.054-.082.041.1.041.217.082.136.19.19.109.38.367.625.272l-.027.027c.136-.054.1.054.2.054a.042.042,0,0,0-.014.027c.163-.054.2.136.3.136l-.054.068.136.1-.041-.054c.177-.177,0,.2.2.163.068.1.516-.245.544-.068.136-.054-.163.109-.041.1-.082.1-.082.041-.136.136.109.014.014.19.163.19l-.068.082c.231-.054.109.272.3.19.163.027-.136.272.136.231l-.041.136c.027.054.136-.1.136,0-.054.068.027.109-.068.136.027.2.367.068.38.367.136-.1.163.041.272-.027-.041.054.136.136-.041.19-.014,0-.027-.014-.014-.027l-.082.068c-.027.217.231.068.3.163,0-.054-.041-.068.027-.109l.068.082-.068.054.1.136.054-.1c.027.1-.068.245.1.19.082-.041.027-.136.136-.136a1.007,1.007,0,0,0,.177.408c.068-.1.1-.068.136-.068l-.068.082c.2-.014-.109.2.082.217l.109-.1c.231-.068-.082.2.2.1-.054-.027.136-.19.136-.109l-.082.068c.041.014.082-.014.082.014-.054.027-.109.1-.054.136l-.082.027.2-.068c0,.136.177.136.136.245,0,0,.1.163.217.082-.1.054-.041.136-.136.2.109-.054.272-.027.231.1h-.014c.082.217.367.109.408.326.068-.1.1.014.177-.109.245.014.068.462.408.136.082.041,0,.136.027.19h-.027a1.169,1.169,0,0,1,.272.19c.068,0,.217-.136.272-.041-.082.041-.041.054-.014.082-.027,0-.054.014-.054.1.027-.014.041-.027.054-.027.054.027.068,0,.054-.027.014-.014.014-.027.027-.054-.014.136.136.136.068.231a2.126,2.126,0,0,0,.544.136.154.154,0,0,1-.163.082l.109.054c-.068.082-.1,0-.136,0-.014.231.34.054.353.272l.082-.041v.014a.174.174,0,0,1,.136-.054c-.041.082-.136.163-.082.217-.014.109.163.082.272.1-.027-.041.027-.068.054-.082.027.027-.014.109.041.1l-.082.1c.068-.109.163-.027.217-.054-.041.082-.1.027-.136.068a1.77,1.77,0,0,0,.2.136c.136-.014.068-.109.177-.163.082.027.19.014.2.136l.054-.109a.3.3,0,0,1,.19.109c-.272.313-.679.91-.462.408-1.454,1.9-2.5,4.171-4.212,6.59a1.327,1.327,0,0,1-.408-.177c-.3-.326-.245-.571-.652-.815a3.337,3.337,0,0,0-.544-.408c-.19.068-.217-.177-.408-.136l.027-.109c-.068.014-.136,0-.136-.068h.027c-.1.014-.136-.068-.163-.054l.027-.014-.068-.041.041-.027a.331.331,0,0,1-.272-.177l-.068.1c-.068-.231-.272-.1-.34-.34h.027c-.38.082-.136-.408-.544-.34.041-.014.027-.054.054-.082a.249.249,0,0,0-.367.068c-.054-.054,0-.1.041-.177a.139.139,0,0,1-.2.027h.054l-.163-.1-.1.163c-.041-.109.136-.19.027-.217l-.109.136c-.082-.109.014-.353-.014-.516-.367-.408-1.087-.476-1.291-1.019l.054-.109c.109-.136-.272.109-.19-.027h-.1c.014-.041,0-.082.054-.1-.041-.041-.054-.014-.136,0l.027-.136c-.109-.2-.38-.163-.544-.34-.068-.34-.584-.543-.883-.625-.489-.068-.408-.91-.924-.951,0-.027-.054-.014-.068,0l-.272-.272s-1.4-1.277-1.25.761h-.027c.109.2.19.313.408.272-.136.19.136.136.109.217l-.014.014c.217-.054.109.272.313.245-.014.014-.054.054-.082.041.1.041.217.082.136.19.19.109.38.367.625.272h-.027c.163-.054.1.054.2.054a.042.042,0,0,0-.014.027c.163-.054.2.136.3.136l-.054.068.136.1-.041-.054c.177-.177,0,.2.2.163.068.1.516-.245.544-.068.136-.054-.163.109-.041.1-.082.1-.082.041-.136.136.109.014.014.19.163.19l-.068.082c.231-.054.109.272.3.19.163.027-.136.272.136.231l-.041.136c.027.054.136-.1.136,0-.054.068.027.109-.068.136.027.2.367.068.38.367.136-.1.163.041.272-.027-.041.054.136.136-.041.19-.014,0-.027-.014-.014-.027l-.082.068c-.027.217.231.068.3.163,0-.054-.041-.068.027-.109l.068.082-.068.054.1.136.054-.1c.027.1-.068.245.1.19.082-.041.027-.136.136-.136a1.007,1.007,0,0,0,.177.408c.068-.1.1-.068.136-.068l-.136.1c.2-.014-.109.2.082.217l.109-.1c.231-.068-.082.2.2.1-.054-.027.136-.19.136-.109l-.082.068c.041.014.082-.014.082.014-.054.027-.1.1-.054.136l-.109.068.2-.068c0,.136.177.136.136.245,0,0,.1.163.217.082-.082.054-.041.136-.136.2.109-.054.272-.027.231.1h-.014c.082.217.367.109.408.326.068-.1.1.014.177-.109.245.014.068.462.408.136.082.041,0,.136.027.19h-.027a1.169,1.169,0,0,1,.272.19c.068,0,.217-.136.272-.041-.082.041-.041.054-.014.082-.027,0-.054.014-.054.1.027-.014.041-.027.054-.027.054.027.068,0,.054-.027.014-.014.014-.027.027-.054-.014.136.136.136.068.231a2.126,2.126,0,0,0,.544.136.154.154,0,0,1-.163.082l.109.054c-.068.082-.1,0-.136,0-.014.231.34.054.353.272l.082-.041v.014a.174.174,0,0,1,.136-.054c-.041.082-.136.163-.082.217-.014.109.163.082.272.1-.027-.041.027-.068.054-.082.027.027-.014.109.041.1l-.082.1c.068-.109.163-.027.217-.054-.041.082-.1.027-.136.068a1.772,1.772,0,0,0,.2.136c.136-.014.068-.109.177-.163.041.014.082.014.136.027-.068.1-.136.177-.2.272-.217.815-1.386,2.31-1.549,2.908-.136.014-2.12,3.1-1.155,1.223a1.484,1.484,0,0,1,.272-.38v-.3c-1.44,1.576-2.011,3.288-3.261,4.987.408-.476.856-1.169.639-.652l-1.128,1.59.136-.408-1.726,2.31.367-.231A13.462,13.462,0,0,0,83,424.784c-.313.679.978-.951.136.3l-4.579,5.476c.272-.054-.109.448-.5.992l-.177-.041c-1.44,2.092-.87.5-2.364,2.487l.054-.245-.177.72c-1.3,1.807-1.06.679-2.5,2.5.34-.272.476-.272.408-.136a1.647,1.647,0,0,1-.774.707l.136-.272c-.245.19-.326.217-.408.3a1.247,1.247,0,0,1-.489.136c.326-.177.136-.272-.761-.054a3.379,3.379,0,0,0,.544-.326c-.544.231-1.114.408-1.7.611-1.4.027-3.669.272-4.239,0l-1.495-.1c.082-.326.177-.652.272-.992,1.576-7.881,2.8-16.4,4.484-23.683l.177-.3c.2-.109.136-2.065.34-2.31l.082-.87c.082-.231.2-.734.163-.3a8.237,8.237,0,0,0,.19-1.386l.272-.815c.679-3.1.978-5.775,1.631-9.036.951-3.886,2.174-11.332,2.894-15.626.72-4.892,2.174-10.327,3.179-15.49a1.168,1.168,0,0,0,.367.149c.761.231,1.128-.136,1.984-.272a5.917,5.917,0,0,0,1.766-.014,6.6,6.6,0,0,0,1.141-.258c.136-.2.489-.1.679-.272l.1.082c.054-.068.136-.136.217-.082v.027c.1-.1.217-.082.272-.136v.027l.136-.041-.014.041a1.006,1.006,0,0,1,.53-.19l-.041-.109c.408.027.448-.231.815-.19v.027c.3-.408.707,0,1.019-.448-.041.054.041.054.054.082.177-.109.367-.19.272-.408.136-.054.136.014.19.1-.041-.1.054-.19.163-.231l-.027.054.272-.163-.136-.136c.177-.027.136.19.272.082l-.068-.136c.231-.082.462.054.734.041.951-.448,1.495-1.44,2.31-1.875l.109.054c.136.109-.014-.367.136-.272v-.136c.041,0,.109-.027.109.041.068-.068.054-.082.068-.177l.136-.014c.313-.245.367-.611.639-.91.476-.245.815-1.128.992-1.631.136-.734,1.155-1.155,1.223-1.97.027-.014.014-.1-.014-.1l.3-.611c.054,0,1.223-3.016-.978-1.223l-.027-.027a.8.8,0,0,0-.245.775c-.231-.054-.136.245-.245.3l-.014-.014c.082.272-.326.326-.272.584-.014-.014-.068-.054-.054-.1-.041.136-.082.353-.217.3-.136.326-.408.734-.353,1.033l-.027-.027c.054.19-.068.136-.082.313H91.94c.054.2-.19.367-.2.489l-.082-.041-.136.245.068-.082c.19.163-.245.1-.231.353-.136.136.19.611-.027.707.041.136-.1-.177-.109-.014-.109-.068-.027-.109-.136-.136-.041.136-.245.109-.272.3l-.082-.054c0,.272-.367.231-.326.462-.082.231-.326-.082-.326.231h-.163c-.082.054.068.163-.054.2-.054-.068-.136.054-.163-.054-.272.082-.217.5-.625.543.054.177-.136.2-.1.34-.054-.054-.272.2-.217-.041,0-.027.027-.041.041-.014l-.041-.1c-.245-.014-.19.272-.353.367.068,0,.136-.054.136.027l-.136.082-.027-.1-.231.109.082.068c-.136.027-.272-.1-.3.109-.014.1.177.068.082.136a2.242,2.242,0,0,0-.639.136c.068.1.027.136-.014.163l-.054-.082c-.136.231-.163-.163-.326.027V363.3l.041.217c-.109.272-.19-.136-.272.2.082-.054.136.19.014.19l-.014-.1c-.054.041-.054.1-.1.1.014-.068-.041-.136-.109-.082l.014-.136-.1.231c-.163-.054-.313.136-.408.041,0,0-.272.041-.3.2.027-.109-.136-.1-.136-.2-.041.136-.217.272-.34.19v-.014c-.34-.014-.489.313-.815.272.041.109-.136.1-.041.231-.272.231-.611-.163-.611.313-.136.054-.19-.068-.272-.082l.027-.027a1.821,1.821,0,0,1-.516.136c-.082.068-.054.272-.245.272.041-.1-.027-.068-.1-.054.041-.027.041-.054-.054-.1a.3.3,0,0,1-.041.068c-.1.027-.082.041-.027.054,0,.014.014.027.027.054-.136-.082-.313.054-.353-.082-.313.082-.544.272-.815.367-.041-.068.014-.136.1-.19l-.19.054c-.014-.109.109-.082.163-.109-.272-.136-.448.245-.747.109l-.041.1h-.014a.282.282,0,0,1-.082.136c-.054-.1-.027-.217-.136-.2-.109-.082-.3.082-.435.136.082.014.054.068.027.1-.068.014-.109-.082-.163-.041l-.014-.136c.041.136-.163.136-.19.2-.041-.1.1-.1.109-.163-.272.027-.136.014-.408.054-.136.109.041.136-.027.231-.136.027-.245.136-.408.068l.054.109A.515.515,0,0,1,78.5,366a2.925,2.925,0,0,0-.571.38q.266-1.408.476-2.826a2.306,2.306,0,0,0,.082-.72l1.087-5.612.747-3.94.245-1.332c-.054.272-.1.516-.136.775,3.614.543,5.911.951,8.479,1.114.326.448,3.03.679,3.845,1.019l-.1.014c2.31.245,4.484,1.454,6.658,1.9a1.077,1.077,0,0,1-.652-.068c1.522.435,3.6,1.223,3.451,1.467a.391.391,0,0,1,.272.272c.027.136.027.245-.136.544.014.082-.435.489-.815.815l-1.223,1.06a15.036,15.036,0,0,0-3.7,4.348l.054-.19a28.517,28.517,0,0,0-1.63,3.288c-.068.068-.136.177-.136.136-.2.815-.544,1.943-.788,3.071a15.2,15.2,0,0,0-.367,2.853l-.163.068a27.819,27.819,0,0,0-.041,3.193c-.014-.408.014-.815.027-1.2.408.408-.272,2.446.34,4.715.3,2.174,1.766,4.076,2.4,6.142.6.9-.679-.734.109.652-.177.136-.408-.625-.408-.177a24.4,24.4,0,0,0,1.984,4.035l-.109.136c.788,1.005,1.427,2,2.038,2.894.272.435.679.9.924,1.223a5.637,5.637,0,0,1,.5.761,1.405,1.405,0,0,1-.177,1.495ZM365.1,475.778l-.272-1.413-1.169.408c3.261,9.729,1.454,1.005,1.454,1.005Z" transform="translate(-56.15 17.373)" fill="none" stroke="#fff" stroke-width="1"/>
      <path id="Path_8" data-name="Path 8" d="M305.132,265.049l.027-.068C305.132,264.968,305.118,264.981,305.132,265.049Zm86.145,213.529-.082-.625-.177-1.3a19.153,19.153,0,0,0-1.549-5.612c.245.516.014-.272.082-.245-.734-2-1.9-4.022-2.256-3.845l-.679-1.169c-.1-.177-.027-.2-.068-.353-.136.027-1.318-.856-2.391-1.4l.516.217a26.8,26.8,0,0,0-3.084-1.495l.476.571c-1.59-.815-.272-.543-1.861-1.155l-.082.272c-2.256-.978-3.465-1.834-5.639-2.813-9.294-3.3-19.62-5.394-28.3-8.18l-.34-.3c-.1-.326-2.541-.217-2.813-.571l-1.06-.136c-.272-.136-.87-.34-.34-.272a7.437,7.437,0,0,0-1.712-.313,4.809,4.809,0,0,0-.639-.217c-.231-.054-.462-.1-.679-.136a4.683,4.683,0,0,0-3.288,1.25c-.1-.6-.353-1.726-.014-.747.041.109.081.313.041.3l.136.136a30,30,0,0,0-.856-3.669c.054.408.163.9.027.571l-.245-1.223.136.231-.34-1.807-.054.272a8.327,8.327,0,0,0-.38-2.2c-.177-.435.041.856-.19-.054-.177-1.2-.448-2.989-.747-4.484-.068.136-.136-.1-.2-.38a7.509,7.509,0,0,0,1.155-1.114,3.921,3.921,0,0,0,.815-2,6.333,6.333,0,0,0-.136-1.223l-.217-.924-.476-1.848-1.019-3.7-.462-1.766q.829-.313,1.631-.693a17.51,17.51,0,0,0,3.886-2.758A21.418,21.418,0,0,0,342.878,414a31.667,31.667,0,0,0,2.038-8.56,9.917,9.917,0,0,0,.149-1.6c0-.272.014-.544.014-.734a.974.974,0,0,0-.014-.3,61.192,61.192,0,0,0-.34-10.367q-.576-5.094-1.44-10.15s-1.005-6.114-2.745-14.022q-2.735-12.587-6.142-25.015c-2.038-7.378-3.669-12.446-3.628-11.115-.027,1.359,1.766,9.036,5.476,27.393l-.177-.476,5.272,25.2a34.346,34.346,0,0,0,.6,5.3c.367,2.419.639,5,.707,6.291l-.054-.245a36.386,36.386,0,0,1-2.989,19.43,10.474,10.474,0,0,1,.639-1.7,18.843,18.843,0,0,1-3.723,5.911,9.166,9.166,0,0,1-3.057,2.31,13.361,13.361,0,0,1-1.753.91,18.973,18.973,0,0,1-2.011.706l-4.511,1.427-9.2,2.853-15.082,4.43.462-.177a94.4,94.4,0,0,1-9.715,2.255c-.272.014-.571.054-.543.041a40.149,40.149,0,0,1-8.56,1.06,24.461,24.461,0,0,1-7.691-1.087l-.163-.217a18.19,18.19,0,0,1-7.093-4.661,15.076,15.076,0,0,0,1.155,1.128,10.926,10.926,0,0,0,1.223,1.033,3.962,3.962,0,0,1-1.318-.91,17.118,17.118,0,0,1-2-2.106,35.713,35.713,0,0,1-4.525-7.066c-.611-1.359-1.087-2.772-1.63-4.212-.435-1.467-.951-2.921-1.318-4.43a49.183,49.183,0,0,1-1.59-9.308c-.448-2.989.544,2.622.014-1.861.2-.163.313,2.092.38.91-.476-4.4-.3-7.256-.611-12.732l.163-.231c-.5-7.133.027-13.506-.448-18.289-.245-3.709-.2-4.946-.2-6.25a34.831,34.831,0,0,0-.611-6.468l-.2-3.044c-.571-3.315-.639-2.31-1.454-5.979a8.214,8.214,0,0,0-.462-1.97c-.272-.91-.489-1.563-.054-.544a34.186,34.186,0,0,0-2.541-5.979c-1.087-1.957-2.269-3.75-3.492-5.68l-2.419-3.8-1.359,2.487,1.9,3.125,2.174,3.669a31.851,31.851,0,0,1,1.834,3.669l.272,1.114c-.041.272.734,1.862,1.359,3.587a16.991,16.991,0,0,1,1.128,4.076c.245.978.476,1.957.679,2.962.1.842.272,2.65,0,1.155l.679,4.892c.041,1.005.054,2.038.068,3.044.679,11.142.543,20.748,1.223,32.651a108.476,108.476,0,0,0,1.155,12.745c.774,4.756,1.957,10.014,4.837,14.81a34.066,34.066,0,0,0,5.163,6.25,20.076,20.076,0,0,0,6.821,4.212,23.8,23.8,0,0,0,7.31,1.3,38.612,38.612,0,0,0,4.049-.163,28.875,28.875,0,0,0,1.264,4.076l.951,2.364.584,1.495a5.92,5.92,0,0,0,4.688,3.3,5.291,5.291,0,0,0,1.495-.082l1.019-.163a44.49,44.49,0,0,0,4.715-1.033c2.011-.435,4.117-1.005,6.06-1.495.856-.489,2.582-.6,3.6-1.087l.462.054a3.016,3.016,0,0,1,1.2-.326v.054c.544-.245,1.2-.326,1.454-.448l-.014.054.679-.177-.109.1a15.807,15.807,0,0,1,2.881-.747l-.136-.177c1.957-.231,2.582-.788,4.348-.951v.054c2.065-1.005,3.533-.448,5.666-1.454-.272.136.136.068.136.136,1.019-.3,2.12-.584,2.038-.951.761-.163.639-.027.774.1-.041-.163.6-.38,1.182-.543l-.272.136c.544-.163.951-.231,1.631-.462l.136,1.563c.611,3.016,1.359,6.114,2.079,9.2l.136.679q-.257-.068-.516-.122l.014-.041a1.766,1.766,0,0,0-1.155.3c-.1-.217-.408.054-.544,0l.014-.027c-.272.231-.679-.027-.924.19.014-.027,0-.081.068-.109-.217.068-.5.177-.544.054a4.539,4.539,0,0,0-1.535.489l.014-.041c-.163.177-.245.068-.435.177h-.027c-.177.177-.6.136-.747.231l-.027-.081-.408.1.163-.014c0,.272-.34-.1-.611.136-.272.027-.462.625-.774.543-.109.136.081-.2-.109-.081-.027-.136.082-.1.014-.19-.19.1-.353-.068-.584.068l-.027-.1c-.272.245-.639-.014-.815.2-.312.136-.272-.272-.6.014l-.163-.109c-.136.014-.081.19-.272.136,0-.082-.217-.027-.136-.136-.408-.054-.72.34-1.264.2-.082.19-.34.136-.408.272-.027-.068-.5.082-.245-.136.027-.014.068-.027.068,0l.014-.109c-.312-.136-.489.2-.774.231.1.014.2-.014.136.068l-.272.041.041-.1-.408.027.068.1c-.2-.014-.3-.177-.489.014-.082.1.2.109.014.177a4.781,4.781,0,0,0-.992-.014c.054.109-.041.136-.136.163l-.027-.1c-.312.2-.163-.19-.489-.014l.014-.082-.054.231c-.272.272-.2-.177-.489.163.136-.041.109.2-.068.19l.027-.109c-.082.041-.109.081-.177.081.041-.068,0-.136-.136-.109l.068-.136-.217.231c-.217-.068-.5.136-.611,0,0,0-.435.014-.5.177.068-.109-.177-.1-.136-.217-.1.136-.408.272-.544.19h.027c-.5-.027-.788.313-1.25.272.041.109-.19.1-.109.231-.408.231-.87-.136-.951.34-.2.068-.272-.054-.367-.068l.041-.027a4.229,4.229,0,0,1-.761.177c-.136.068-.109.272-.38.272.068-.1-.041-.068-.136-.041.054-.027.068-.054-.068-.1a.3.3,0,0,1-.054.068l-.014-.014c-.136.054-.136.081-.041.081,0,.014.014.027.041.054-.19-.082-.448.1-.5-.041-.462.136-.775.34-1.155.476-.054-.068.027-.136.136-.2l-.272.082c-.014-.109.136-.1.231-.136-.367-.109-.652.313-1.087.217l-.068.1-.027-.014c.014.041-.068.136-.136.136-.068-.081-.041-.217-.231-.177-.163-.054-.408.136-.611.217.109,0,.082.054.041.1-.1.027-.163-.054-.231,0l-.027-.136c.054.109-.231.177-.272.231-.068-.082.136-.109.136-.19-.38.082-.19.041-.571.136-.19.136.054.109-.014.245-.177.054-.34.177-.544.136l.082.1a1.131,1.131,0,0,1-.788.109c-2.364,1.4-.3,1.359-.3,1.359,1.046.054,1.495-.367,2.677-.679a13.614,13.614,0,0,0,2.446-.272c.516-.082,1.06-.245,1.563-.367.2-.217.679-.136.924-.326l.136.068a.349.349,0,0,1,.313-.1h0c.136-.1.313-.1.367-.136v.027l.177-.041v.041a1.9,1.9,0,0,1,.747-.19l-.041-.109c.516.027.652-.245,1.128-.177h0c.5-.408.951.041,1.467-.367-.068.054.041.054.041.081.272-.081.544-.163.5-.408.19-.041.177.041.217.136-.027-.1.136-.177.3-.2l-.068.054.435-.136-.136-.177c.245.014.109.217.313.136v-.136c.326-.027.544.163.9.217,1.3-.19,2.622-.856,3.872-.815l.082.109c.054.163.272-.313.353-.163l.136-.109c.041.027.136.041.068.1.136-.014.136-.041.217-.136l.163.082c.544-.014.924-.313,1.467-.367a6.664,6.664,0,0,0,2.541-.6c.951-.448,2.215.014,3.166-.476.041.014.109-.054.109-.068l.924-.136a11.324,11.324,0,0,0,1.563-.408l.231,1.019-.054.1q-.328.551-.679,1.087a23.108,23.108,0,0,1-3.451,4.185,37.038,37.038,0,0,1-7.514,5.027,26.237,26.237,0,0,1-4.688,1.766,20.322,20.322,0,0,1-4.212.788,12.615,12.615,0,0,1-5.3-.774,24.745,24.745,0,0,1-5.027-2.908,7.56,7.56,0,0,0-1.631-.883,4.32,4.32,0,0,0-1.141-.177,4.1,4.1,0,0,0-1.264.2,2.841,2.841,0,0,0-.543.258c-.027-.082-.068-.163-.1-.231-.544-1.522-.951-2.582-1.087-2.269a9.93,9.93,0,0,0,.408,3.193,2.432,2.432,0,0,0-.462.815,1.679,1.679,0,0,0-.136.639l-.068.448c-.041.272-.054.544-.1.788a31.859,31.859,0,0,0,.041,6.033,2.449,2.449,0,0,0,.136.9c.109,2.351.3,4.7.584,7.038,0,0,.272,2.133.788,4.892a68.623,68.623,0,0,0,2.269,8.7,3.625,3.625,0,0,0,1.549,1.807,3.587,3.587,0,0,0,1.631.5c.72.027,1.087-.136,1.087-.272.231-.054.313-.136.19-.163a6,6,0,0,1-1.943-.815,2.559,2.559,0,0,1-1.155-1.739l-.231-1.563.231,1.563a1.925,1.925,0,0,0,.081.3c-.081-.38-.136-.951-.231-1.495l-.313-2.106v.068c-.1-.543-.19-.679.177-.679h.177c.163-.014.313-.041.462-.054l.883-.109c1.141-.136,2.174-.326,3.22-.544.367.19,2.554-.3,3.288-.326l-.068.027c1.875-.408,3.913-.353,5.707-.747a.97.97,0,0,1-.516.136,17.417,17.417,0,0,1,3.261-.367c3.166-.448,7.609-.951,9.62-1.427l-.136.054c1.141-.3,1.495-.217,2.785-.448.068.014.163,0,.136.014,1.25-.312,3.669-.489,4.7-.679l.081.082,2.514-.34-.951.1c.3-.272,1.929-.082,3.723-.476,1.712-.19,3.4-.951,5.19-1.06.815-.217-.72.272.543.027.054.136-.584.163-.245.217,1.223-.217,2.038-.136,3.574-.408l.082.1c1.97-.435,3.8-.353,5.1-.679,2.038-.34,1.413.136,3.533-.353l.856.027c.924-.1.639-.245,1.658-.312-.054.1,1.291-.1.706.068,2.31-.163,4.647-.788,7.718-.951.639-.245,2.174-.353,2.65-.544.1.068,3.057-.38,1.359,0-.136.027-.408.068-.408.027l-.19.136c1.766-.041,3.125-.5,4.851-.679-.516.027-1.182.136-.747,0l1.59-.19-.326.136,2.378-.272-.34-.068a14.5,14.5,0,0,0,2.881-.272c.584-.163-1.114,0,.109-.19l5.055-.435a.144.144,0,0,1,.081-.1c.027,0,.054.082.082.177l-.1.054c.543,1.807.041.883.38,2.473l.014.1c.014.041.014.082.027.136l-.082-.1a1.462,1.462,0,0,1,.245.326c.068.639-.136.761-.272.87a4.338,4.338,0,0,1-.856.639c.516-.245.435.177-.476.272a1.733,1.733,0,0,0,.231-.136c-.516.1-.734.163-1.087.2.326-.1.163-.163-.679-.027l.544-.2-1.535.408c-1.223.068-3.125.462-3.628.408a24.21,24.21,0,0,0-3.18.543c.5-.163-.924,0-.543-.163a17.98,17.98,0,0,1-3.438.571h.136c-2.949.3-5,.87-7.663,1.087.136.1-1.264.231-.9.34-2.718.544-5.027.408-5.938,1.005a16.07,16.07,0,0,1-2.133.163l.3-.068-4.715.679a13.626,13.626,0,0,1-2.514.571c.489-.136-.136-.054-.72.027.367-.068.476-.109-.272-.068-.109.041-.272.081-.408.136-.014,0-.041,0-.027-.014-.951.163-.788.163-.34.136-.027.014.014.027.163.027-1.019.027-2.785.408-2.935.272-2.894.448-4.946.883-7.337,1.291-.272-.041.272-.177.951-.312l-1.712.272a6.371,6.371,0,0,1,1.495-.3c-2.065.109-4.171.774-6.59.951l-.489.136h-.136a3.4,3.4,0,0,1-.87.245c-.353-.041,0-.217-1.2-.054a35.692,35.692,0,0,0-3.872.639c.679-.082.462,0,.177.082-.6.081-.951.041-1.4.136l-.068-.136c.245.081-1.522.353-1.739.435-.353-.041.91-.217,1.046-.3l-3.56.516c-1.25.272.245.081-.34.272-1.114.177-2.174.408-3.478.544l.408.054a39.448,39.448,0,0,1-4.756.639c-6.59,1.332-8.153,1.834-7.745,1.984-2.038.992,5.381.231,5.381.231,7.568-.639,11.359-1.726,20.273-3.125,7.881-1.005,10-.951,18.126-2.215l11.821-1.766c1.766-.543,4.987-.707,7.066-1.223l.842.041a10.383,10.383,0,0,1,2.31-.38l-.041.054c1.087-.272,2.31-.38,2.853-.516l-.041.054,1.332-.2-.217.1a56.607,56.607,0,0,1,5.612-.87l-.177-.177a41.149,41.149,0,0,0,4.348-.584q.928-.164,1.861-.3l1.046-.136c.19-.014.408-.041.6-.054a3.585,3.585,0,0,0,.87-.19l-.054.068a3.921,3.921,0,0,0,2.364-3.56,1.282,1.282,0,0,0,.068-.856Zm-60.22-40.056.272-.054c0,.054.014.109.014.136a2.546,2.546,0,0,1-.3-.1Zm.747-4.144a2.225,2.225,0,0,1-.312,1.087c.2.014.136.2.027.408l-.136-.081c-.136.367-.272.326-.38.3s-.19-.081-.435.136v-.136a1.938,1.938,0,0,1-.041.394.8.8,0,0,1-.489.217.839.839,0,0,1-.326-.014c-.19-.027-.408-.041-1.005.34.516-.136.326.313-.326.38l.136-.19a4,4,0,0,1-.679.231c.19-.136.054-.272-.448-.109l.3-.272-.91.516c-.815,0-1.943.5-2.31.34a6.3,6.3,0,0,0-1.97.6c.272-.231-.625-.081-.408-.312a4.35,4.35,0,0,1-2.133.625l.1-.041c-1.9.245-3.1.992-4.81,1.141.136.177-.775.272-.5.462-1.658.639-3.261.231-3.669,1.128a4.347,4.347,0,0,1-1.359.1l.177-.082c-1.44.408-1.862.5-2.962.734-.544.2-.544.571-1.495.707.272-.217-.109-.1-.476-.014.231-.082.272-.136-.217-.136a.526.526,0,0,1-.245.136c-.014-.014-.027-.014-.027-.027-.6.19-.476.2-.19.163-.014.027.027.041.136.068-.679-.041-1.766.408-1.9.19-1.807.476-3.044,1.019-4.538,1.467-.2-.082.136-.272.544-.408l-1.06.3c-.041-.177.6-.245.91-.353-1.359.014-2.582.9-4.131.978l-.272.217h-.1c.027.068-.3.272-.462.313-.2-.136-.054-.34-.6-.3a7.412,7.412,0,0,1-1.766-.462c.245.217.136.231-.041.19-.272-.177-.272-.408-.462-.544l.136-.163c-.109.245-.611-.489-.679-.584.068-.2.313.367.462.353a8.642,8.642,0,0,1-.72-1.9c-.408-.734-.136.2-.448-.136a8.957,8.957,0,0,1-.734-2.133l-.109.3a9.3,9.3,0,0,1-.856-2.948l-.408-.842.326-.041c10.87-1.712,22.229-4.824,33.6-8.112l8.492-2.541c.177-.054.34-.1.5-.136.041.408.367,1.631-.068.761-.041-.082-.082-.245-.027-.245l-.19-.1c-.054,1.155.625,1.929.815,2.989-.027-.326-.136-.747.041-.489l.217,1.005-.19-.177.272,1.495.136-.245c.082.747-.136,1.06.272,1.834.217.34.068-.734.3.014l.1.815a3.259,3.259,0,0,1,.1.815ZM300.213,486.69l-.041-.19.041.19c.1.38.19.788.272,1.182C300.4,487.464,300.308,487.084,300.213,486.69Zm.992,4.158-.353-1.44.353,1.44q.1.411.231.815C301.327,491.35,301.273,491.119,301.2,490.848Zm85.52-15.965c-7.962.951-16.441,2.446-23.914,3.125l-.34-.082c-.163-.136-2.011.516-2.31.408l-.856.19c-.245,0-.761.027-.34-.068a7.537,7.537,0,0,0-1.386.272h-.87c-3.152.313-5.8.87-9.1,1.25-3.995.272-11.441,1.44-15.734,2.12-4.892.842-10.49,1.141-15.707,1.807a1.747,1.747,0,0,0,.027-.408c-.014-.788-.462-1.033-.883-1.794-.272-.72-.136-1.005-.571-1.685a6.769,6.769,0,0,0-.6-1.005c-.245-.068-.245-.435-.476-.544l.041-.136a.2.2,0,0,1-.136-.177v-.014c-.136-.054-.136-.177-.2-.2h.027l-.082-.109h.041a1.068,1.068,0,0,1-.34-.448l-.1.082c-.1-.38-.367-.353-.435-.72h.027c-.489-.136-.217-.679-.734-.815.068.014.027-.054.054-.068-.136-.136-.3-.3-.476-.136-.1-.109-.027-.136.027-.2-.082.068-.19,0-.272-.081l.068.014-.245-.217-.1.177c-.082-.163.136-.19,0-.272l-.109.109c-.136-.19-.082-.448-.19-.707-.72-.761-1.821-.951-2.5-1.6l.014-.136c.054-.163-.34.136-.3-.041l-.136.027c-.014-.041-.054-.1.014-.109-.082-.054-.1-.027-.19,0l-.054-.136c-.326-.217-.707-.163-1.087-.326a3.044,3.044,0,0,0-1.848-.435c-.747.082-1.454-.747-2.242-.543-.027-.027-.1.027-.1.041l-.679-.1c-.014-.054-3.261-.217-.87,1.318l-.014.041c.34.109.544.163.815-.014.014.231.272.054.353.136h-.014c.231-.163.408.2.639.068-.014.014-.027.082-.068.082.136-.014.367-.027.353.109.353.027.815.177,1.087.014l-.027.027c.163-.109.163.014.326-.027,0,.014.014.027.014.041.177-.109.408.068.544.041l-.014.1.272.054-.1-.041c.109-.231.163.2.408.109.177.082.544-.38.679-.19.136-.082-.136.136.027.109-.041.136-.1.054-.081.163.136-.014.177.19.367.177l-.027.1c.272-.1.34.272.544.177.245.014.027.326.313.245l.027.163c.082.068.136-.136.2-.014-.041.082.1.136,0,.163.163.231.544.041.707.408.136-.109.231.054.353-.014-.027.068.272.177.027.217-.027,0-.041-.014-.027-.041l-.068.068c.054.245.326.1.462.231-.027-.054-.082-.1-.014-.136l.136.109-.082.041.177.19.041-.109c.068.136,0,.272.19.245.1-.027,0-.19.136-.136a3.954,3.954,0,0,0,.313.571c.068-.1.109-.054.163-.041l-.068.082c.272.054-.1.217.136.3l-.068.041.19-.109c.272.014-.081.217.272.2-.068-.054.136-.177.177-.068l-.1.041c.054.027.109.014.109.068-.068.014-.136.081-.041.136l-.136.041.245.014c0,.177.231.245.163.38,0,0,.136.272.272.217-.109.014-.041.163-.163.19.136,0,.326.136.272.272h-.014c.1.326.448.367.489.679.1-.082.136.1.231-.027.3.177.041.639.489.489.1.109-.014.2.014.272h-.041a2.323,2.323,0,0,1,.3.448c.081.068.272-.027.326.136-.109-.014-.054.041-.027.109-.027-.027-.068-.027-.082.082a.1.1,0,0,1,.068.014l-.014.014c.082.081.1.054.082,0q.02,0,.041-.041c-.041.136.136.272.027.353a6.761,6.761,0,0,0,.6.639c-.054.068-.136.027-.2-.027l.109.163c-.1.041-.109-.068-.136-.136-.054.272.367.353.34.679l.1.014c.041-.014.136.014.136.041-.068.068-.2.082-.136.2-.041.136.163.272.272.367-.014-.082.041-.068.082-.054.027.054-.041.136.014.163l-.136.054c.1-.068.19.109.245.109-.068.068-.136-.068-.19-.054a3.035,3.035,0,0,0,.177.367c.136.1.109-.068.231-.054.068.109.2.19.19.353l.1-.082a.544.544,0,0,1,.163.544,2.8,2.8,0,0,0,.544.408l-2.826.435a4,4,0,0,0-.707.136l-5.68.706-5.3.679c-.245.027-.489.068-.747.1l-.1.014.1-.014c.245-.027.5-.068.747-.1l.788-.109c-.625-3.6-.951-5.911-1.576-8.4.326-.448-.3-3.084-.231-3.981l.041.082c-.489-2.269-.027-4.729-.245-6.93a1.006,1.006,0,0,1,.136.639,20.469,20.469,0,0,1,.068-2.772l.544.027-.408-.815c.041-.109.082-.19.136-.177a.387.387,0,0,1,.19-.34.762.762,0,0,1,.544-.054,4.822,4.822,0,0,1,1.033.516l1.4.856a15.693,15.693,0,0,0,5.272,2.174h-.19a27.424,27.424,0,0,0,3.628.516c.1.041.2.068.19.068.815-.054,2.038-.081,3.166-.2a15.693,15.693,0,0,0,2.853-.543l.136.136a31.689,31.689,0,0,0,3.057-.951c-.38.136-.761.231-1.141.34.272-.516,2.405-.489,4.375-1.794,1.984-.951,3.3-2.949,5.082-4.212.679-.842-.489.856.6-.3.177.136-.462.6-.041.448a26.214,26.214,0,0,0,3.22-3.125l.177.054c.707-1.06,1.454-1.984,2.106-2.853.326-.408.652-.91.883-1.25.177-.272.367-.489.544-.72a1.448,1.448,0,0,1,1.495-.272,2.719,2.719,0,0,0,.5.136,9.308,9.308,0,0,0,1.359.272l.951.476a2.749,2.749,0,0,0,1.06.136,5.287,5.287,0,0,1-.054.72c-.217.408-.476.408-.571.87a5,5,0,0,0-.2.639c.136.163-.109.272-.014.435h-.109c.027.054.041.109-.027.136h-.027c.041.081-.027.136,0,.177l-.027-.014-.014.068-.027-.027a.314.314,0,0,1-.082.313l.109.041c-.2.136,0,.313-.217.408h-.027c.2.34-.34.272-.163.611-.027-.041-.068-.014-.082-.027-.014.136-.041.231.177.326-.041.082-.1.041-.177.014a.131.131,0,0,1,.082.177l-.027-.041-.041.19.19.041c-.1.068-.231-.068-.217.041l.136.054c-.081.109-.34.1-.489.177-.272.476-.136,1.182-.571,1.549l-.136-.027c-.163-.054.19.231.027.19l.054.081c-.041,0-.081.027-.109-.014-.027.054,0,.054.027.136l-.136.014c-.163.163-.041.408-.163.611-.312.163-.312.72-.326,1.046.082.489-.747.679-.625,1.182-.027,0,.014.054.027.068l-.177.353s-.788,1.726,1.087.951h.027c.163-.163.231-.272.136-.489.231.068.1-.136.177-.177l.014.014c-.136-.19.245-.19.136-.367.014.014.068.041.068.068.014-.1,0-.231.136-.19.054-.217.231-.476.082-.679l.027.027c-.109-.136.014-.109-.014-.217h.041c-.1-.136.081-.245.041-.326l.082.027.041-.163-.041.054c-.217-.136.19-.068.1-.245.068-.1-.408-.408-.231-.489-.082-.1.136.136.109,0,.136.041.054.068.163.082-.027-.109.177-.082.136-.2l.1.041c-.136-.2.217-.19.1-.34-.027-.163.313.027.19-.19h.136c.041-.054-.136-.109-.054-.136.081.041.1-.054.163.014.19-.1-.054-.367.231-.476-.136-.109,0-.163-.109-.245.068.027.1-.19.19-.027.014.014,0,.027-.027.014l.082.054c.217-.041-.014-.245.054-.34-.041.014-.054.068-.109.014l.054-.1.068.054.109-.136-.109-.014c.082-.054.272-.014.136-.136-.054-.068-.163.014-.136-.068a1.02,1.02,0,0,0,.34-.3c-.109-.027-.1-.068-.109-.109l.1.041c-.082-.19.231.041.177-.136l-.136-.082c-.136-.19.217.014.027-.217,0,.054-.217-.054-.136-.109l.082.054c0-.041-.041-.068-.014-.081.041.041.136.068.136,0l.1.081-.136-.163c.136-.041.054-.2.2-.19,0,0,.136-.136,0-.231.068.068.136-.014.231.054-.081-.082-.109-.245.014-.245h.014c.19-.136-.014-.38.19-.489-.109-.041-.014-.1-.163-.136-.068-.231.408-.2.014-.435.014-.1.136-.054.177-.082l.014.027a.849.849,0,0,1,.1-.312c-.014-.068-.217-.163-.136-.245.068.068.068.014.081-.014,0,.027.027.054.109.027-.027-.014-.027-.027-.041-.054.014-.054-.014-.054-.041-.041s-.027-.014-.054-.014c.136-.027.068-.177.2-.136a3.214,3.214,0,0,0-.027-.544.146.146,0,0,1,.136.136V455.1c.1.041.027.082.041.136.217-.068-.054-.34.163-.408l-.068-.068h.014c-.041-.014-.081-.082-.1-.109.1.014.2.082.231.014.109-.027.027-.19.014-.272-.027.041-.082,0-.1-.027.014-.041.109-.027.082-.068l.136.041c-.136-.027-.082-.136-.136-.177.1.014.054.1.109.136.054-.136.027-.081.082-.231-.054-.136-.136-.027-.2-.109,0-.082-.054-.19.054-.231l-.136-.014a.232.232,0,0,1,.041-.2c.38.136,1.087.353.544.313,2.269.788,4.756,1.087,7.582,1.97a1.673,1.673,0,0,1-.041.435c-.217.408-.476.408-.571.87a4.977,4.977,0,0,0-.2.639c.136.163-.109.272-.014.435h-.109c.027.054.041.109-.027.136l-.027-.014c.041.082-.027.136,0,.177l-.027-.014v.068l-.027-.027a.314.314,0,0,1-.082.313l.109.041c-.2.136,0,.313-.217.408v-.014c.2.34-.34.272-.163.611-.027-.041-.068-.014-.082-.027-.014.136-.041.231.177.326-.041.081-.1.041-.177.014a.131.131,0,0,1,.082.177l-.027-.041-.041.19.19.041c-.1.068-.231-.068-.217.041l.136.054c-.081.109-.34.1-.489.177-.272.476-.136,1.182-.571,1.549h-.136c-.163-.054.19.231.027.19l.054.082c-.041,0-.081.027-.109-.014-.027.054,0,.054.027.136h-.136c-.163.163-.041.408-.163.612-.312.163-.312.72-.326,1.046.082.489-.747.679-.625,1.182-.027,0,.014.054.027.068l-.177.353s-.788,1.726,1.087.951l.027.027c.163-.163.231-.272.136-.489.231.068.1-.136.177-.177v.014c-.136-.19.245-.19.136-.367.014.014.068.041.068.068.014-.1.014-.231.136-.19.054-.217.231-.476.082-.679h0c-.109-.136.014-.109-.014-.217h.041c-.1-.136.081-.245.041-.326l.081.027.041-.163-.041.054c-.217-.136.19-.068.1-.245.068-.1-.408-.408-.231-.489-.082-.1.136.136.109,0,.136.041.054.068.163.082-.027-.109.177-.082.136-.2l.1.041c-.136-.2.217-.19.1-.34-.027-.163.313.027.19-.19h.136c.041-.054-.136-.109-.054-.136.082.041.1-.054.163.014.19-.1-.054-.367.231-.476-.136-.109,0-.163-.109-.245.068.027.1-.19.19-.027.014.014,0,.027-.027.014l.082.054c.217-.041-.014-.245.054-.34-.041.014-.054.068-.109.014l.054-.1.068.054.109-.136h-.109c.081-.054.272-.014.136-.136-.054-.068-.163.014-.136-.068a1.021,1.021,0,0,0,.34-.3c-.109-.027-.1-.068-.109-.109l.1.041c-.082-.19.231.041.177-.136l-.136-.082c-.136-.19.217.014.027-.217,0,.054-.217-.054-.136-.109l.082.054c0-.041-.041-.068-.014-.082.041.041.136.068.136,0l.1.082-.136-.163c.136-.041.054-.2.2-.19,0,0,.136-.136,0-.231.068.068.136-.014.231.054-.082-.082-.109-.245.014-.245l.014.014c.19-.136-.014-.38.19-.489-.109-.041-.014-.1-.163-.136-.068-.231.408-.2.014-.435.014-.1.136-.054.177-.081l.014.027a.85.85,0,0,1,.1-.313c-.014-.068-.217-.163-.136-.245.068.068.068.014.082-.014,0,.027.027.054.109.027-.027-.014-.027-.027-.041-.054.014-.054-.014-.054-.041-.041s-.027-.014-.054-.014c.136-.027.068-.177.2-.136a3.213,3.213,0,0,0-.027-.544.146.146,0,0,1,.136.136v-.136c.1.041.027.082.041.136.217-.068-.054-.34.163-.408l-.068-.068h.014c-.041-.014-.082-.081-.1-.109.1.014.2.081.231.014.109-.027.027-.19.014-.272-.027.041-.082,0-.1-.027.014-.041.109-.027.082-.068l.136.041c-.136-.027-.081-.136-.136-.177.1.014.054.1.109.136.054-.136.027-.082.081-.231-.054-.136-.136-.027-.2-.109,0-.041-.014-.081-.014-.136.109.041.217.068.326.109.856-.054,2.609.611,3.261.571.068.136,3.6,1.046,1.495.72-.177-.027-.489-.136-.448-.163l-.272.1c1.957.883,3.75.9,5.748,1.535-.584-.231-1.359-.448-.815-.408l1.861.571-.435.014,2.745.924-.326-.272a12.884,12.884,0,0,0,3.315,1.182c.734.1-1.223-.625.231-.231l6.631,2.65c-.136-.272.462-.027,1.087.177l.014.19c2.446.72.747.679,3.1,1.467l-.245.027.734-.054c2.12.679.992.788,3.152,1.6-.38-.231-.408-.367-.245-.367a1.654,1.654,0,0,1,.91.516l-.313-.041a3.429,3.429,0,0,1,.408.313,1.113,1.113,0,0,1,.272.408c-.272-.272-.3-.054.19.734-.163-.136-.326-.313-.489-.435a16.2,16.2,0,0,1,1.087,1.413c.462,1.318,1.386,3.4,1.318,4.022l.367,1.454c.326-.014.625-.027.951-.054a9.577,9.577,0,0,0-1.875,0Zm-60.3,16.536-1.848.272,1.848-.272,1.155-.136Zm30.355-4.307c-.842.19-1.9.34-2.908.476,1.019-.136,2.065-.272,2.908-.476Zm5.8-.734h0l.177-.068-1.087.163,1.087-.163Zm.408-.068q2.094-.389,4.212-.625Q365.083,485.92,362.987,486.309Zm4.076-.734h0l1.06-.136Zm6.875-.9h0l.027-.027Zm9.009-1.359c.027,0,.027-.014.068-.014h0A.122.122,0,0,0,382.948,483.32Zm.231.041a.06.06,0,0,0-.041-.014c.027.014.054.014.041.014Zm3.4-.761c0,.136-.435.245-1.087.367.652-.136,1.087-.272,1.087-.367.448-.068.707-.081.856-.1A6.924,6.924,0,0,0,386.576,482.6Zm3.94-3.777h0a.62.62,0,0,1,.068-.272A1.267,1.267,0,0,0,390.516,478.823Zm73.889-123.729v-.136C464.392,355.053,464.392,355.094,464.405,355.094Z" transform="translate(11.35 38.148)" fill="none" stroke="#fff" stroke-width="1"/>
      <path id="Path_9" data-name="Path 9" d="M199.1,199.095l.2-.231-.041.041Zm22.148-15.789c-.041.014-.136.272-.272,1.087Zm82.2,64.623-.272.014A.916.916,0,0,0,303.449,247.929Zm140.305-50.872a3.286,3.286,0,0,0,1.359-3.125c-.272-2.174-2.038-1.9-2.038-2.718,0-.679.815-1.359,1.359-2.174.815-1.631.272-3.94-1.495-4.348s-7.066.272-7.066.272,4.212-1.631,5.843-3.533c1.087-1.359.408-2.174.408-2.174l-12.093.272c-2.31,0-5.979,3.8-7.609,4.892a22.689,22.689,0,0,1-6.522,2.446c-.272.041-1.318.068-2.894.068a1.746,1.746,0,0,0-1.454-1.427l-3.8.136c-1.087-.136-1.766.272-1.766,1.223v.041l-12.772-.136.353-6.155s-43.018-5.435-59.867-14.539c-16.849-9.24-31.387-34.648-39.54-45.926-7.419-11.006-19.4-24.621-39.227-19.43a22.065,22.065,0,0,0-14.5,8.288c-15.395,3.94-45.179,14.131-68.291,37.909-32.474,33.425-40.029,76.009-40.029,76.009L138.5,226.6l-6.3,20.055a48.117,48.117,0,0,0-5.34,15.422,7.872,7.872,0,0,0-.639,1.834c-.679,2.31-.408,3.261,1.087,3.669a.777.777,0,0,0,.625-.136c.326.041.652.014.924.027-.272,1.766.177,2.609,1.576,2.935a1.141,1.141,0,0,0,.815-.19c.272.19.543.38.815.543a2.3,2.3,0,0,0,1.766,2.758,2.091,2.091,0,0,0,2.228-.652q.247.117.489.245s.136.163.353.408a2.191,2.191,0,0,0,1.821,1.9,1.658,1.658,0,0,0,.815,0h.014c1.223.136,2.853-2.853,3.533-5.707.543-2.853.543-2.853,1.223-4.212.543-1.223.462,3.193.91,5.435.516,2.582,2.758,4.457,3.574.516.815-4.076,1.386-7.609,1.522-8.832s-.312-4.049-.312-6.087v-2.038s-.272-1.63,2.038-5.3c.707-1.128,3.492-5.326,7.133-10.734l8.873,5.109s16.6-33.507,32.23-48.046c6.386-5.938,14.77-11.251,22.474-15.49L211.516,246.9H322.8s-.978-12.867-2.989-29.186c5.272,1.264,10.462,2.12,15.626,2.826,23.778,3.261,55.791.679,55.791.679l.611-10.761c4.62.068,11.074.136,14.906-.014a1.65,1.65,0,0,0,1.522,1.128l3.8-.136a1.617,1.617,0,0,0,1.59-1.413q1.857-.062,3.709-.217c3.533-.272,14.946-.951,21.061-3.533s5.571-4.62,5.571-5.707c0-.543-.679-1.087-.815-1.631-.136-.652.014-1.6.543-1.875Zm-13.207,12.338.136-.041-.027.014Z" transform="translate(-31.141 -21.189)" fill="none" stroke="#fff" stroke-width="1"/>
      <path id="Path_10" data-name="Path 10" d="M364.084,172.775h0c.054-.014.082-.041.136-.054Zm21.9,20.49-3.506.313a1.855,1.855,0,0,0-.707-.856,1.7,1.7,0,1,0-1.631,2.989,1.821,1.821,0,0,0,1.386.081l1.2,1.549c.272.136.408.136.679-.136a.617.617,0,0,0,0-.679l-1.06-1.359c.027-.054.082-.082.109-.136a1.376,1.376,0,0,0,.136-.476l3.533-.34c.272,0,.408-.272.408-.544s-.272-.408-.543-.408ZM206.631,116.251l-.041-.041v.1c.014-.014.014-.041.027-.054Z" transform="translate(-2.178 -15.223)" fill="none" stroke="#fff" stroke-width="1"/>
      <path id="Path_11" data-name="Path 11" d="M445.912,193.633a3.183,3.183,0,0,0-.584-1.223,3.533,3.533,0,0,0-.951-.842c-.231-.136-.2-.272-.054-.462l.679-.883.19-.272a1.547,1.547,0,0,0,.217-.421,3.485,3.485,0,0,0,.2-.761c-.1.544.109-.2.136-.163a4.067,4.067,0,0,0-.408-2.718c-.408-.72-.951-1.019-1.033-.951a4.528,4.528,0,0,0-1.046-.544c-.136-.054-.1-.082-.177-.136-.041.068-1.141,0-2.065.041l.435-.041-1.6.068A11.532,11.532,0,0,0,442,182.831a4.335,4.335,0,0,0,1.114-1.522,2.218,2.218,0,0,0-.2-2.242.931.931,0,0,0-.476-.177,1.357,1.357,0,0,0-.543-.068l-1.019.027-4.443.163-6.21.19-.448.041a5.109,5.109,0,0,0-.815.2,8.147,8.147,0,0,0-1.386.652,23.884,23.884,0,0,0-2.364,1.59l-.326.109c-.231-.041-1.386,1.495-1.685,1.522l-.584.571c-.19.109-.543.326-.272.082l-1.046.679-.775.245-3.981,1.386a4.809,4.809,0,0,1-.951.163l-1.06.054h-.815a2.491,2.491,0,0,0-1.821-1.332.463.463,0,0,0-.136-.014l-3.7.136a2.311,2.311,0,0,0-1.929.448,1.7,1.7,0,0,0-.435.639l-7.133.068a17.6,17.6,0,0,0,.041-2.242c-.041.245-.054.584-.109.353l.054-.788.068.163.109-1.169-.109.136c.041-.272.109-.476.136-.679a1.19,1.19,0,0,0,.041-.326v-.19l-.014-.408c-.054-.489-.19.951-.163-.082l.136-1.3-2.853-.489c.082.136-.19.1-.448.082l-.014-.109a2.127,2.127,0,0,1-.516-.041,1.246,1.246,0,0,1-.34-.109,3.36,3.36,0,0,0-1.318-.231c-.082.041-.177.068-.245.109h-.19v.408l-.5-.068-1.766-.272-.747-.312c-.3-.326-4.892-.3-5.53-.679l-2.065-.2c-.571-.136-1.766-.408-.734-.3l-3.3-.435-1.984-.544c-7.378-1.467-13.723-2.378-21.373-4.389a151.338,151.338,0,0,1-17.433-5.843c-6.223-2.663-11.59-7.2-15.218-10.789-5.2-4.987-9.919-11.278-14.335-17.8s-8.56-13.316-13.112-19.294a6.927,6.927,0,0,0-1.087-1.359,60.429,60.429,0,0,0-9.24-10.408s-.2-.177-.543-.5l-1.631-1.277a36.248,36.248,0,0,0-6.033-3.669c-.639-.3-1.332-.544-2.011-.815a15.309,15.309,0,0,0-2.147-.72l-2.242-.6-2.31-.34-1.155-.136-1.155-.027L262.9,98.71c-1.495.136-2.908.272-4.212.476l-3.506.815c-1.005.34-1.861.679-2.541.951-1.359.544-1.943.883-1.467.9a46.194,46.194,0,0,0,4.932-.856l2.487-.313a26.639,26.639,0,0,1,3.057-.136,29.976,29.976,0,0,1,7.786.951,1.309,1.309,0,0,0-.326,0c6.97,1.821,10.68,4.688,14.647,7.745.408.72,4.212,4.266,5.163,5.734l-.136-.109a38.7,38.7,0,0,1,4.117,5.476c1.277,1.929,2.541,3.859,3.872,5.6a3.12,3.12,0,0,1-.815-.951c1.834,2.609,4.348,6.2,4.28,6.522l7.283,10.381a88.806,88.806,0,0,0,6.739,8.248l-.272-.217c1.957,2.038,2.378,2.758,4.579,5.027.1.136.245.313.2.3,1.141,1.033,2.69,2.65,4.294,4.117.775.761,1.576,1.467,2.31,2.079s1.359,1.155,1.875,1.522l.041.217,2.5,1.807c.815.6,1.766,1.087,2.636,1.63l-1.957-1.223a9.654,9.654,0,0,1,2.772,1.631c.679.435,1.522.856,2.419,1.318.448.217.924.462,1.413.679.5.19,1.019.38,1.549.544,3.845,1.658,8.193,1.984,12.229,3.356,2.038.34-1.821-.136,1.169.476.041.231-1.413-.231-.679.136,2.921.679,4.7,1.467,8.329,2.174l.109.2c4.756.761,8.832,2.133,12.052,2.446,4.892.775,3.179,1.087,8.343,1.658l1.943.544c2.174.408,1.631-.027,4.022.462-.177.136,3.057.571,1.6.5q1.441.271,2.894.476l1.223.163.448.041.014.313-.041,1.25-.136,3.044c-.109,2.079-.272,4.28-.516,6.658.19,1.6-.19,5.258-.041,6.441-.136.19-.435,7.337-.462,3.22a3.811,3.811,0,0,1,.082-.951l-.136-.5c-.544,4.131-.272,7.555-.544,11.685.136-1.223.2-2.853.272-1.766l-.245,3.8-.1-.815-.38,5.3a.782.782,0,0,0,.1-.054c.027-.054.068-.231.109-.353a2.143,2.143,0,0,1-.068.489.367.367,0,0,1-.068.163c-.082.041-.245-.041-.313-.041s.027-.014-.136-.014h-.38l-.815.041c-.571.041-1.223.109-2,.217-1.413.217,2.636.082-.272.3l-14.022.19c.448.19-.815.2-2.147.272l-.136-.163c-5.027.272-1.848-.34-6.835-.136l.435-.109-1.318.34c-4.511.3-2.419-.38-7.432-.041,1.984.014.924.408-1.495.245l.625-.136c-1.359-.027-1.794.027-2.69-.054.815-.054.435-.217-1.549-.272l1.332-.136c-1.25.054-2.5.054-3.75.082-2.853-.34-7.432-.543-8.56-.951l-3.261-.408a37.814,37.814,0,0,0-4.321-.476c1.25.054-2.106-.584-1.114-.6a43.315,43.315,0,0,1-8.085-1.44l.353.068c-6.739-1.766-11.631-2.785-17.338-5.394.177.326-2.8-1.114-2.174-.543-1.495-.625-2.935-1.223-4.212-1.9l-3.533-1.929a21.519,21.519,0,0,0-4.973-2.487,38.187,38.187,0,0,1-4.117-2.908l.611.353c-2.364-1.454-3.8-2.541-5.1-3.478s-2.487-1.766-4.076-3.084c-1.63-1.25-2.174-1.087-4.932-3.587.992.679-.163-.3-1.2-1.223.679.571.924.707-.38-.543-.217-.136-.543-.38-.815-.6,0-.014-.054-.068-.014-.054-1.766-1.495-1.495-1.182-.707-.462-.054-.014,0,.054.217.313-1.726-1.671-4.892-4.565-4.946-4.919-2.582-2.337-4.62-4.484-6.685-6.454-1.033-.978-2.011-1.957-2.949-2.989-.951-.992-1.9-2.011-2.853-3.125-.312-.584.625.408,1.766,1.631-.91-1.019-1.766-2.065-2.65-3.125a21.224,21.224,0,0,1,2.4,2.69c-2.921-3.872-6.522-7.636-9.24-12.677l-.707-.951-.136-.313a9.656,9.656,0,0,1-1.223-1.739c-.231-.788.353-.136-.951-2.622-.815-2.065-2.663-5.707-3.56-8.492.476,1.495.231,1.046-.041.408-.476-1.332-.476-2.174-.842-3.193l.136-.136a32.552,32.552,0,0,1-1.141-4.076c.014-.408.136.136.272.815a13.753,13.753,0,0,0,.476,1.631,28.281,28.281,0,0,1-.571-2.853l-.217-1.291c-.068-.34-.1-.679-.163-1.3s-.2-1.495-.245-2.881c-.3-2.989-.177.544-.435-.87a32.97,32.97,0,0,1,.489-8.288c-.136.3-.231.611-.34.924l.217-1.454c.136-.408.272-.842.408-1.223l.815-3.777a24.076,24.076,0,0,1,2.011-4.307,26.913,26.913,0,0,1,6.576-8.873,25.616,25.616,0,0,1,5-3.465c2.283-1.223,2.038-1.291.679-.992a19.871,19.871,0,0,0-5.87,2.758l-1.359.978-1.046.9a9.344,9.344,0,0,0-.951.883c-.584.584-1.128,1.169-1.631,1.766-6.006,1.59-11.821,3.438-17.229,5.3l-.679.068c-.38-.163-3.764,1.957-4.4,1.929-.544.272-1.046.544-1.576.815-.476.136-1.467.544-.679.109-1.495.679-1.522.72-2.582,1.277l-1.685.544a141.837,141.837,0,0,0-16.441,9.212,67.716,67.716,0,0,0-6.155,3.94,83.057,83.057,0,0,0-6.93,5.326l-3.424,2.921c-1.114.978-2.12,2.065-3.125,3.044a74.119,74.119,0,0,0-5.3,5.571c-2.038,2.378-4.253,4.756-6.318,7.337l-3.207,3.859-4.62,6.087-1.427,2.106-2.813,4.212-2.5,4.348-1.2,2.147L146.7,180.7a7.393,7.393,0,0,0-.611,1.359l-1.359,2.582-1.25,2.65c-.815,1.766-1.685,3.533-2.419,5.34l-.91,2.174c-.6,1.359-1.277,3.261-2.092,5.462a125.346,125.346,0,0,0-4.212,14.2c-.245,1.087-.448,2.133-.611,3.03-.272-.38-.951,2.174-.951,2.174q-.261.868-.462,1.753c-.054.272-.109.543-.177.815l-.312,1.563.951.543.462.272.245.136c.34.177.679.353,1.06.543q1.27.634,2.514,1.318l1.2.734c-1.386,4.321-2.391,6.848-3.9,12.419.272-.924-.177.38-.19.272l-1.427,4.8c-.19.679-.34,1.25-.435,1.658,0,.19-.19.516-.109.543-1.223,2.31-1.019,1.875-1.277,2.147.1.027-.815,2.106-1.495,4.035l.272-.9a55.311,55.311,0,0,0-1.766,5.571l.489-1.06c-.856,2.962-.448.679-1.087,3.587H127c-.1.408-.163.775-.245,1.155a8.33,8.33,0,0,0-1.019,2.582c-.408,1.9-.679,3.8,1.495,4.348h.272a1.931,1.931,0,0,0,.815-.272c.068-.054.136-.136.19-.177-.163,1.495.136,2.826,1.984,3.3h.408a1.551,1.551,0,0,0,.707-.231,3.523,3.523,0,0,0,.313,2,2.81,2.81,0,0,0,1.821,1.114,2.721,2.721,0,0,0,2.677-1.019,3.1,3.1,0,0,0,.462,1.807,2.5,2.5,0,0,0,1.766,1.223h.544c2.011,0,3.016-2.582,3.533-4.158a18.471,18.471,0,0,0,.924-2.147c.082-.435.625-1.223.707-1.63.014.231.041.462.054.679a16.173,16.173,0,0,0,.367,2.582,5.092,5.092,0,0,0,1.359,2.527,1.775,1.775,0,0,0,1.766.516,2.237,2.237,0,0,0,1.264-1.223,8.951,8.951,0,0,0,.679-2.554l.842-4.837.543-2.989a5.7,5.7,0,0,0,.041-.679q0-.611-.041-1.223c-.1-1.6-.272-3.125-.217-4.62l.136-.707a3.611,3.611,0,0,0,.027-1.06v-.136a3.512,3.512,0,0,1,.041-.775,4.95,4.95,0,0,1,.272-1.046,5.677,5.677,0,0,1,.625-1.4c.245-.543.543-1.06.815-1.59.3-.408.924-1.3.462-.516.924-1.413.951-1.467,1.563-2.514l1.087-1.467c1.359-2.011,2.405-3.669,3.587-5.476a10.927,10.927,0,0,0,2.133,1.223c-.217-.082.054.109.027.136.747.408,1.535.815,1.671.639.543.313.408.313.408.435.054-.1.544.136.951.38l-.217-.082,1.223.679-.136-.3c.611.408.041.3.679.611l.068-.136a10.461,10.461,0,0,1,1.019.761c.448.34.951.734,1.63,1.2l.136-.272.883-2.038c.177-.448.367-.9.544-1.359l.367-.924c.109-.2.2-.408.313-.611,3.152-5.775,5.367-9.308,7.609-12.867l8.356-12.8a128.711,128.711,0,0,1,12.229-15.327c1.807-2.391,6.019-5.544,8.723-7.84l1.223-.679a22.215,22.215,0,0,1,3.152-2.256l-.041.082c1.087-.87,2.4-1.671,3.288-2.242l1.087-3.913a15.1,15.1,0,0,0-4.348,3.071c-2.106,1.467-2.65,1.495-3.75,2.256l.476-.408c-1.943,1.44-3.22,2.31-4.294,3.234-1.087.883-2.106,1.63-3.451,2.813-1.3,1.25-1.3,1.658-3.628,3.872.639-.815-.272.109-1.128.951.544-.544.625-.788-.5.313-.136.19-.326.462-.543.72-.014,0-.068.041-.054.014-1.3,1.522-1.033,1.291-.408.611-.014.054.054.014.272-.177-1.576,1.386-3.737,4.4-4.1,4.43a147.606,147.606,0,0,0-8.642,12.555c-.408.408.136-.639.91-1.861-.679.978-1.291,1.97-1.929,2.962a12.465,12.465,0,0,1,1.631-2.677c-2.582,3.329-4.525,7.392-7.283,11.468l-.408.951-.163.245a8.342,8.342,0,0,1-.747,1.671c-.489.516-.3-.231-1.495,1.9a55.663,55.663,0,0,0-3.261,6.114l-1.59-.856c-.951-.544-1.848-1.06-2.69-1.631l-.082-.19c.027-.19-1.033-.272-1.087-.5l-.408-.136c-.1-.082-.3-.245-.1-.177a2.023,2.023,0,0,0-.652-.272l-.326-.313c-1.359-.856-2.663-1.359-4.117-2.215a63.854,63.854,0,0,0-7.093-3.845c-2.826-1.291-5.639-3.669-8.56-4.946a1.2,1.2,0,0,0-.353-.136l-2.527-1.44a62.642,62.642,0,0,0-6.2-3.125c.815-2.446,2.038-6.155,4.076-11.454l-.027.272,1.495-4.076,1.332-3.465c.775-2.2,1.59-4.117,2.256-6.2.571-.5,2.2-4.7,2.921-5.979l-.027.136c1.44-3.587,3.777-6.984,5.435-10.3a2.393,2.393,0,0,1-.408,1.005l2.065-3.709a7.9,7.9,0,0,1,1.386-1.9c3.261-5.571,8.832-12.636,11.237-16.033l-.136.272a33.043,33.043,0,0,1,3.614-4.4,1.738,1.738,0,0,0,.245-.19c.775-1.033,2.038-2.446,3.261-3.764l3.315-3.193h.2L178.4,142.8l.924-.883.978-.815c-.489.408-1.005.775-1.467,1.223.177-.815,3.125-2.31,5.8-4.892,1.318-1.128,2.677-2.242,3.995-3.478a24.653,24.653,0,0,1,4.253-3.343c1.359-1.087-1.114,1.087.992-.435.19.136-.951.761-.272.544,2.092-1.427,3.587-2.092,6.2-3.8l.19.082a55.4,55.4,0,0,1,4.946-2.853A46.323,46.323,0,0,0,209.094,122c3.7-2.011,2.718-.815,6.563-2.894l1.631-.476c1.712-.734,1.114-.788,3.084-1.454-.068.177,2.473-.856,1.4-.272,4.416-1.535,8.8-3.614,14.838-5a11.671,11.671,0,0,1,1.087-.448.3.3,0,0,1-.041.068c-2.256,3.478-3.506,6.522-3.6,8.288-.951,2.813-1.264,3.3-1.766,4.756l.136-.679c-1.454,5.367-1.63,7-2.5,11.006a49.311,49.311,0,0,1-.815,5.979c.082-1.182-.177.272-.435,1.631.136-.856.136-1.141-.272.611a7.3,7.3,0,0,1-.1,1.005c-.014.014-.041.082-.041.041-.367,2.256-.245,1.875-.041.815.014.054.054-.027.136-.34-.611,2.31-1.169,6.495-1.467,6.726-1.155,6.767-1.766,11.631-2.636,17.256-.231.611-.136-.72.136-2.364l-.652,3.995a20.291,20.291,0,0,1,.476-3.533c-1.128,4.7-1.413,9.837-2.636,15.354l-.054,1.182-.082.326a9.829,9.829,0,0,1-.136,2.092c-.272.761-.353-.136-.815,2.65-.544,2.174-.978,6.21-1.359,9.076.272-1.535.272-1.019.231-.353-.231,1.386-.516,2.147-.625,3.22l-.177.082c.136.217-.448,3.709-.448,4.185-.272.761.231-2.174.163-2.527l-1.359,8.288c-.34,2.989.272-.5.231.951-.408,2.609-.679,5.163-1.3,8.153l.34-.91c-.679,4.919-1.182,7.84-1.9,11.115-1.141,9.375-1.658,14.5-1.766,16.9-1.087.136-1.223.272-.014.489-.068,1.929.217,1.495.611.082,2.31.3,7.555.679,17.025,1.128l-.326.068c7.337.136,11.957.19,16.984-.136.815.408,6.019.041,7.745.163l-.163.027c4.484-.3,9.2.245,13.506-.014a3.55,3.55,0,0,1-1.25.136c3.125-.054,7.432-.136,7.663.1,7.5-.054,17.963.041,22.759-.312l-.326.068c2.718-.245,3.533-.041,6.6-.163a2.319,2.319,0,0,1,.353.054c2.989-.245,8.7-.041,11.115-.136l.136.136,5.938-.041-2.215-.027a2.606,2.606,0,0,1,1.087-.136c.272.014.543.014.9.027l1.427.054,1.929.054c.027-.014.109.027.109-.014v-.136l-.014-.245-.027-.516L324,246.122l-.136-1.875c-.054-.516-.136-1.046-.2-1.576-.3-4.022-1.631-8.071-1.848-12.229-.408-1.97.5,1.712.041-1.223.2-.136.272,1.359.38.584-.408-2.908-.3-4.81-.856-8.384l.136-.163c-.109-.571-.177-1.087-.272-1.658l9.158,1.766c1.658.326,3.315.584,5.109.87,1.807.2,3.737.448,5.924.516-1.087-.041.448.136.367.177,3.995.34,8.261.5,8.343.136,2.908.136,2.364.231,2.717.408a26.775,26.775,0,0,1,4.783-.1l-1.046.041c2.174.054,4.348.041,6.522.041l-1.277-.326c3.438.136.87.408,4.171.326l-.041-.272c4.756.027,7.568.367,12.188.408l6.794-.272,3.424-.2,1.834-.136,1.467-.136.734-.054c.109-.027.272.014.34-.068l.027-.367v-.014l1.9-.027-.068.054.815-.109c.313-.041.611-.1.883-.136a12.005,12.005,0,0,0,.027-2.989c.245-.136.1-1.25.19-1.6l.014.041c-.136-.951.272-1.9.136-2.813a.323.323,0,0,1,.068.272c.014-.652,0-1.549.136-1.59.014-.462.041-.951.068-1.495,2.8-.027,5.571-.163,9.729-.313a2.4,2.4,0,0,0,1.861.924l3.777-.136a2.262,2.262,0,0,0,1.929-1.087c1.984-.027,4.022-.163,7.174-.462a94.423,94.423,0,0,0,9.471-1.223,57.983,57.983,0,0,0,5.625-1.427l.679-.109a14.677,14.677,0,0,1,1.821-.679l-.027.041a22.692,22.692,0,0,0,2.133-1.087l-.014.041a11.12,11.12,0,0,0,.951-.584l-.136.136a11.541,11.541,0,0,0,1.957-1.631,4.38,4.38,0,0,0,1.223-2.446l-.136.136a4.884,4.884,0,0,0,.068-.951v-.177c0-.041-.014-.2-.014-.272a1.869,1.869,0,0,0-.177-.571c-.3-.544-.584-.856-.639-1.005-.027-.014-.041-.136-.054-.3a2.045,2.045,0,0,1,.014-.408c.054-.272.1-.353.2-.408a3.469,3.469,0,0,0,1.413-1.631l.014.054a5.312,5.312,0,0,0,.041-2.69ZM127.6,267.345c-.856-.054-1.359-.543-.679-2.989a5.561,5.561,0,0,1,1.766-3.125c1.821-.19.951,2.079.543,3.4C128.954,265.538,128.383,267.386,127.6,267.345Zm4.62.815-.2.72a2.942,2.942,0,0,1-.883,1.046,1.052,1.052,0,0,1-.408.136c-1.087-.272-1.631-.679-.815-3.8a6.657,6.657,0,0,1,2.174-3.94c.245-.177.408-.272.951-.082.625.2.408,1.9.014,3.777a18.827,18.827,0,0,0-.829,2.147Zm4.756,1.223s-1.359,4.212-2.989,3.8a1.529,1.529,0,0,1-1.087-.679c-.38-.774-.041-2.269.34-3.669a8.4,8.4,0,0,0,.326-1.141c.571-1.766,1.467-3.574,2.717-4.144,1.087-.312,2.609.761.679,5.843Zm5.3.761c-1.114,3.4-1.861,5.2-3.4,4.946a1.386,1.386,0,0,1-1.087-.679c-.408-.815-.136-2.446.136-3.533.408-1.63,1.386-4.484,2.853-4.892,1.957-.543,2.079,2.391,1.495,4.158Zm14.5-28.534c-2.378,3.723-1.9,2.31-4.28,6.25L151.4,249.3a7.461,7.461,0,0,0-.815,1.576l-.747,1.821a4.517,4.517,0,0,0-.408,1.223c-.136.611-.109,1.182-.136.353a2.964,2.964,0,0,0-.014.72l-.014-.136c-.014,1.182-.054,2.419.054,3.7.1,1.25.272,2.527.313,3.75a11.207,11.207,0,0,1-.217,1.875l-.353,2.038-.815,4.375a5.9,5.9,0,0,1-.6,2.514.314.314,0,0,1-.448.136,2.766,2.766,0,0,1-.544-.516,7.617,7.617,0,0,1-.367-.815,7.2,7.2,0,0,1-.34-1.63c-.109-1.128-.136-1.766.136-.014a3.411,3.411,0,0,1,.1.775c.054.136.136.231.177.34-.272-1.6-.3-3.329-.544-5.055a6.7,6.7,0,0,0-.163-.775,1.668,1.668,0,0,0-.163-.367c.014-.014.027-.014.041-.027.136-.272.136-.679-.136-.815a9.072,9.072,0,0,1-3.261-4.212c-.951-2.717.951-6.386.951-6.386A.608.608,0,1,0,142,253.2a11.67,11.67,0,0,0-1.3,3.94c-5.3,1.264-9.022-2.582-9.158-2.69-.272-.136-.543-.272-.815,0-.136.272-.272.544,0,.815a11.4,11.4,0,0,0,7.745,3.261,10.709,10.709,0,0,0,2.133-.245,6.1,6.1,0,0,0,.313,2.147,10.381,10.381,0,0,0,3.125,4.457c-.027.027-.054.041-.1.082a.713.713,0,0,0-.217.272.638.638,0,0,1-.082.136l-.082.177c-.068.136-.136.313-.217.476a2.174,2.174,0,0,0-1.073-.978,2.65,2.65,0,0,0-2.038,0,4.083,4.083,0,0,0-1.413,1.223c.136-1.671-.068-3.356-1.44-3.94a1.733,1.733,0,0,0-1.63,0,4.347,4.347,0,0,0-1.223,1.141,1.807,1.807,0,0,0-1.223-2.092,2.032,2.032,0,0,0-1.766.136,3.768,3.768,0,0,0-.87.815c.082-.951-.109-1.821-1.033-2.174a2.568,2.568,0,0,0-1.114-.041l.435-1.834-.027.408.1-1.169a13.118,13.118,0,0,1,.924-2.962c.245-.543.462-1.141,1.182-3.22-.639,1.63-.543.679.367-1.291l-.136.543a20.126,20.126,0,0,1,.992-2.147c-.136.326-.136.408-.027.245.068-.109.136-.272.272-.476.068-.109.136-.245.217-.408.041-.068.082-.136.136-.231a1.563,1.563,0,0,0,.2-.448,1.542,1.542,0,0,1-.177.448l-.109.272-.217.544.353-.734.136-.272c.041-.1.082-.272.1-.313l.1-.408.408-1.63c.87-2.446,1.97-6.386,2.419-7.364,0,0,1.739-5.3,1.984-6.549-.245,1.087.72-1.821.544-.951.136-.6.217-1.033.435-1.821,1.087.707,2.038,1.332,3.832,2.31,1.4.842,2.935,1.671,4.348,2.446.747.231,1.821,1.046,2.663,1.359l.272.272a3.83,3.83,0,0,1,.87.462l-.027.014c.435.163.87.462,1.087.543l-.027.014.489.272-.109-.014a17.4,17.4,0,0,1,2.065,1.141l.014-.136c1.291.9,1.9.978,3.044,1.821l-.027.014a5.78,5.78,0,0,1,.707.313q-.82,1.2-1.535,2.459Zm-19.974-21.265h-.082a15.41,15.41,0,0,0,3.261,1.726c.041.272,1.128.679,1.413.91h-.041c.951.313,1.671,1.087,2.582,1.427a.337.337,0,0,1-.272-.054c.611.313,1.44.72,1.427.856a39.939,39.939,0,0,0,4.4,2.242H149.4a9.152,9.152,0,0,1,1.291.611.529.529,0,0,1,.054.068c.639.19,1.658.9,2.147,1.087l-.014.1,1.128.611-.408-.272c.272-.136.775.611,1.671.924.747.448,1.807.408,2.527.951.435.109-.408-.027.177.217-.041.136-.3-.082-.2.1.584.272.842.625,1.576.951l-.027.109c.978.34,1.631,1.06,2.31,1.223.951.448.476.611,1.522.978l.3.326c.408.245.38.014.815.326-.068.054.543.38.231.3.951.679,2.174,1.005,3.424,1.957.38.014,1.005.489,1.291.5a2.24,2.24,0,0,0,.543.367c.082.054.082.082-.068.1,0,.014-.163-.082-.136-.1l-.136.041c.054.054.231.177.2.177a.048.048,0,0,0,.014.027c.014.014.054,0,.109.014a.116.116,0,0,1,.041.082c0,.041.027.027-.1.3q.051-.086.1-.177c.027-.054.027-.041.041-.054s.041-.027.054.014l-.3.652-.014-.19-.516,1.087.163-.109c-.272.544-.544.652-.652,1.318-.041.313.353-.462.136.136l-.2.38-.109.2a.3.3,0,0,1-.054.068,1.236,1.236,0,0,1-.136.136l-.163-.163c-.041.109,0,.136-.326-.027l.027-.109c-1.005-.408-.231-.408-1.223-.815l.136-.014-.353.041c-.951-.313-.34-.448-1.413-.747.38.2.054.3-.367,0l.163-.014a1.966,1.966,0,0,1-.516-.272c.177.041.136-.082-.231-.272l.313.041-.788-.245c-.476-.408-1.4-.775-1.549-1.033a6.678,6.678,0,0,0-1.454-.747c.272.054-.34-.34-.1-.34a4.852,4.852,0,0,1-1.576-.815l.068.027c-1.25-.856-2.31-1.155-3.4-1.957,0,.136-.6-.272-.516-.068-1.291-.571-2.038-1.549-2.718-1.4a5.811,5.811,0,0,1-.87-.652l.136.054c-1.046-.571-1.359-.734-2.106-1.2-.408-.177-.571-.027-1.223-.476.272.054-.027-.1-.272-.245.177.082.231.082-.068-.163a.841.841,0,0,1-.217-.054c0-.014-.014-.014,0-.027-.448-.217-.38-.136-.19-.027-.014,0-.014.027.041.082-.408-.353-1.223-.707-1.223-.87-1.3-.72-2.31-1.114-3.4-1.685-.082-.136.2-.054.544.109l-.775-.408c.068-.1.462.2.707.313-.815-.679-1.957-.924-2.935-1.685l-.272-.054-.054-.054c-.014.041-.272-.041-.448-.136-.109-.163.136-.19-.408-.489a9.285,9.285,0,0,0-1.766-.91c.272.19.163.177.027.136-.272-.136-.367-.326-.584-.408l.041-.136c.041.163-.747-.272-.87-.3-.1-.163.448.163.544.136l-1.59-.9c-.611-.245.041.163-.272.109a12.049,12.049,0,0,1-1.495-.815,1.522,1.522,0,0,0,.068.177c-.217-.109-.408-.19-.571-.272a7.227,7.227,0,0,1,.421-1.59l.068-.775c.2-.476.5-1.386.951-2.772.448.408,1.3,1.128,2.745,2.215Zm184.615,24.865.054.435c0,.1.1.272-.082.245l-.34.014-1.046.014-4.973.082-8.778.163c-14.267.435-30.9-.72-45.518-.231a10.09,10.09,0,0,0-1.7.082l-13.384-.041s-25.681-.041-32.447.543c.775-3.057,1.834-8.8,1.834-8.8,2.785-14.294,3.478-21.794,6.21-38.9l6.25-34.485,3.981-22.555c.217-2,.775-4.837,1.359-7.65a1.029,1.029,0,0,0,.014.2,57.945,57.945,0,0,0,2.31,11.726,73.752,73.752,0,0,0,7.2,16.509,82.375,82.375,0,0,0,11.06,14.675A192.087,192.087,0,0,0,270.4,193.565c2.881,2.147,7.7,6.3,11.346,8.56.408.367.815.747,1.25,1.087a42.9,42.9,0,0,1,3.94,2.514l-.109-.014,5,2.853h-.109q1.151.683,2.351,1.277l-.435-.136c1.739.815,3.465,1.726,5.19,2.5,1.766.747,3.4,1.59,5.027,2.242l-.19-.272c1.712.72,3.152,1.332,4.484,1.807l3.7,1.2c1.168.38,2.337.639,3.6,1.019,1.033.313,2.147.625,3.4.951q.558,3.944.965,7.908c.272,4.647.951,11.359,1.6,18.167Zm69.433-24.838a13.758,13.758,0,0,0,.177,1.495c-.027.014-.082.027-.109.041a1.775,1.775,0,0,0-.177.1l.109-1.631Zm-.136,2.038.014-.19a1.167,1.167,0,0,0,.408.1v.014l-.408.082Zm25.816-18.4a7.2,7.2,0,0,1-4.307,3.587,7.3,7.3,0,0,1-5.639-.6,7.33,7.33,0,0,1,3.506-13.791,7.574,7.574,0,0,1,3.465.842,7.442,7.442,0,0,1,2.989,9.96Zm-9.593-17.256c.136-.136.462-.177.978-.136l3.723-.136a1.06,1.06,0,0,1,.87.951l.136,4.756a8.818,8.818,0,0,0-5.707.19h0l-.136-5.231a.51.51,0,0,1,.136-.408Zm-8.56-.462a.378.378,0,0,1-.014.136h-.136c.041-.34.068-.652.136-.136Zm-2.038,5.326c-.177.054.2,1.019.027,1.155l.054.435c-.041.136-.082.367-.109.136a2.005,2.005,0,0,0,.041.679l-.136.408c-.177,1.535-.041,2.853-.177,4.484a60.116,60.116,0,0,0-.34,7.745c.1,2.989-.815,6.413-.679,9.484a.851.851,0,0,0,.027.353l-.217,3.424c-.014.19-.027.408-.027.679v.272l-2,.435c-.408.1-.815.19-1.128.272a12.23,12.23,0,0,0,.2-1.264c.462-3.016.231-4.62.38-8.22.272-3.166.543-3.995.679-7.3.136-1.563.19-3.261.272-4.783-.136-.734.136-2.011.054-2.881l.136-.326a3.193,3.193,0,0,1,.027-.951l.027.027c-.041-.448.041-.951.014-1.169l.027.027.027-.544.041.1a15.309,15.309,0,0,1,.109-2.269l-.136.054c.231-1.495.027-2.038.272-3.4l.027.027c-.19-1.739.408-2.69.217-4.484.027.217.068-.1.1-.068.027-.815.068-1.685-.163-1.712.041-.6.109-.476.2-.543-.054,0-.082-.136-.1-.326,0-.163,0-.313-.014-.462l.027.109v-.476l.136.014a3.553,3.553,0,0,1-.272-.231c.476.109.272.272.571.272l-.027-.163a21.075,21.075,0,0,1,2.228.679l.231.041-.136,4.756a49.943,49.943,0,0,1-.367,5.3l-.136.136Zm9.647,18.7-.054-.136c.231.109-1.495.163-1.712.217-.326-.1.9-.1,1.033-.177l-3.465.054c-1.223.109.231.136-.367.231a28.085,28.085,0,0,1-3.4.027l.408.136c-.543.027-1.033.027-1.495.041a13.036,13.036,0,0,0-.041-2.011l.041.068a7.8,7.8,0,0,1-.014-1.386c.014-.027.027-.082.041-.068-.109-.625.082-1.821.041-2.31l.1-.027.054-1.223-.041.462c-.245-.177.2-.924.1-1.834.082-.842-.408-1.739-.245-2.582-.1-.408.163.38.109-.245.136-.014.068.3.177.136-.027-.611.19-.992.136-1.766l.109-.027c-.136-.992.245-1.848.1-2.514-.027-1.019.34-.679.2-1.726l.163-.408c.054-.448-.136-.34-.054-.815.082.041.109-.625.163-.326.2-1.128-.068-2.31.245-3.8a1.539,1.539,0,0,1-.068-.6c.815.014,1.59.041,2.038.014l.068.1h2.446l-.91-.027c.313-.245,1.821.163,3.587.027l.136,5.258a8.661,8.661,0,0,0,.313,15.109c.041.027.1.041.136.068h0l.054,2.065v.027h-.163Zm6.223.788-3.777.136a.991.991,0,0,1-.951-.951l-.041-1.467a8.574,8.574,0,0,0,2.677.448,8.716,8.716,0,0,0,2.5-.38c.177-.054.353-.136.544-.19h0l.041,1.467a1,1,0,0,1-.978.951Zm32.039-15.816.014-.109a2.3,2.3,0,0,1-.815,1.318,1.909,1.909,0,0,0-.815.856,3.48,3.48,0,0,0-.272.924,4.226,4.226,0,0,0,0,.829,2.351,2.351,0,0,0,.3.951,6.839,6.839,0,0,1,.543.87v.408a1.9,1.9,0,0,1-.054.5c.068-.027.041.19,0,.38s-.136.38,0,.3a4.92,4.92,0,0,1-2.283,2.065,6.465,6.465,0,0,0-1.848,1.182,12.068,12.068,0,0,1-1.9.639l.272-.136a27.629,27.629,0,0,1-4.348,1.25,11.314,11.314,0,0,1-2.378.679c.462-.163-.136-.041-.679.054.353-.082.448-.136-.272-.054-.1.041-.272.082-.408.136-.014,0-.041,0-.027-.014-.924.177-.761.177-.326.136-.014.014.014.027.136.027a24.481,24.481,0,0,1-2.813.245l-7.133.924c-.272-.054.272-.163.951-.245l-1.658.136a5.7,5.7,0,0,1,1.467-.19c-1.712-.027-3.492.34-5.435.408l-.054-1.671a8.4,8.4,0,0,0,3.247-3.424,8.765,8.765,0,0,0-3.533-11.78.626.626,0,0,1-.136-.068l-.136-4.987q.238,0,.476-.027l.068.1a16.75,16.75,0,0,0,2.853-.34,9.5,9.5,0,0,0,2.174-.707,6.979,6.979,0,0,1,1.631-.544,4.388,4.388,0,0,0,1.631-.815,5.706,5.706,0,0,0,.815-.408c.747-.544.408-.544,1.223-1.128.014.109,1.005-.747.611-.312.9-.652,1.739-1.4,2.69-2.038a6.531,6.531,0,0,1,1.495-.775,2.286,2.286,0,0,1,.775-.1l1.087.041c.639-.177,2.133-.136,2.609-.272.082.068,2.989-.054,1.318.136-.136.014-.408.014-.38-.014l-.2.109c1.7.136,3.071-.177,4.756-.177-.5-.027-1.155,0-.72-.082l1.549-.027-.326.1h1.155c.136.014.163,0,.217.027a.183.183,0,0,0,.027-.109c.136.027.027.245-.014.272a.34.34,0,0,0-.054.1c-.054.082-.136.272-.272.476-.245.408.679-.543.054.19a17.78,17.78,0,0,1-4.674,2.622c.2.041-.272.245-.72.448l-.027-.027.408,1.631.041.054c1.984-.367.761.136,2.718-.163l-.163.082.5-.272c1.766-.3.992.109,2.908-.136-.761,0-.326-.272.543-.136l-.231.068c.476.041.6.027.815.163-.231-.027-.136.027.272.34a1.835,1.835,0,0,0-.326-.109,1.583,1.583,0,0,1,.761.639,3.41,3.41,0,0,1,.122,1.549,2.391,2.391,0,0,1-.217.666,1.318,1.318,0,0,1-.272.3,3.267,3.267,0,0,1-.245.3c-.082.1-.177.217-.272.34a6.785,6.785,0,0,0-.408.544,1.821,1.821,0,0,0-.217,1.685,1.754,1.754,0,0,0,.91.775c-.408-.19-.041.068.163.231.136.136.245.272.109.217a1.062,1.062,0,0,1,.625.72,1.476,1.476,0,0,1,.041,1.264Z" transform="translate(-31.287 -21.502)" fill="none" stroke="#fff" stroke-width="1"/>
    </g>
  </g>
</svg>
