<svg width="150" height="150" viewBox="0 0 150 150" fill="none" xmlns="http://www.w3.org/2000/svg">
<path d="M133.929 0H16.0714C7.19542 0 0 7.19542 0 16.0714V133.929C0 142.805 7.19542 150 16.0714 150H133.929C142.805 150 150 142.805 150 133.929V16.0714C150 7.19542 142.805 0 133.929 0Z" fill="#F03E2F"/>
<path d="M46.1786 38.8393C46.1786 51.75 54.3214 59.4107 70.5 63.4822L87.6964 67.3929C103.071 70.8214 112.393 79.4464 112.393 93.4822C112.504 99.6028 110.477 105.571 106.661 110.357C106.661 96.375 99.3214 88.8214 81.5357 84.2679L64.6607 80.5179C51.1607 77.4643 40.7143 70.3929 40.7143 55.1786C40.6414 49.2718 42.567 43.5139 46.1786 38.8393V38.8393Z" fill="white"/>
<path d="M96.1072 90C103.446 94.6607 106.661 101.089 106.661 110.357C100.607 117.964 89.9464 122.25 77.4107 122.25C56.3036 122.25 41.5179 112.071 38.3036 94.3393H58.5536C61.125 102.482 68.0357 106.232 77.3036 106.232C88.5536 106.232 96 100.339 96.1607 90" fill="#F9B1AB"/>
<path d="M56.7322 57.9643C53.4158 56.0201 50.6852 53.2175 48.8279 49.8517C46.9706 46.4859 46.0554 42.6815 46.1786 38.8393C52.0714 31.3393 62.25 26.6786 74.6786 26.6786C96.1072 26.6786 108.589 37.8214 111.643 53.4643H92.1429C90 47.3036 84.6429 42.4821 74.8393 42.4821C64.3393 42.4821 57.1607 48.4821 56.7857 58.0179" fill="#F9B1AB"/>
</svg>
